<svg width="40" height="40" viewBox="0 0 40 40" fill="none" xmlns="http://www.w3.org/2000/svg">
<rect width="40" height="40" rx="4" fill="#25252C"/>
<mask id="mask0_4247_310" style="mask-type:luminance" maskUnits="userSpaceOnUse" x="5" y="8" width="32" height="25">
<path d="M5 8.3335H36.25V32.5413H5V8.3335Z" fill="white"/>
</mask>
<g mask="url(#mask0_4247_310)">
<path d="M29.6366 12.0326C27.9253 11.247 26.1193 10.6869 24.2639 10.3661C24.247 10.363 24.2296 10.3653 24.2141 10.3726C24.1986 10.38 24.1858 10.392 24.1776 10.407C23.9455 10.8196 23.6885 11.3581 23.5086 11.7812C21.4797 11.4774 19.4613 11.4774 17.4741 11.7812C17.2941 11.3485 17.0278 10.8196 16.7947 10.407C16.7861 10.3923 16.7732 10.3805 16.7578 10.3732C16.7424 10.3659 16.7251 10.3634 16.7083 10.3661C14.8527 10.6862 13.0466 11.2464 11.3356 12.0326C11.321 12.0388 11.3086 12.0494 11.3002 12.0629C7.87831 17.1752 6.941 22.1619 7.40081 27.0868C7.40209 27.0988 7.40579 27.1105 7.41169 27.1211C7.41758 27.1318 7.42555 27.1411 7.43513 27.1485C9.69274 28.8066 11.8797 29.8132 14.0261 30.4803C14.0428 30.4853 14.0606 30.4851 14.0772 30.4796C14.0937 30.4742 14.1082 30.4638 14.1187 30.45C14.6265 29.7565 15.079 29.0255 15.4672 28.2567C15.4725 28.2462 15.4756 28.2347 15.4761 28.2229C15.4767 28.2111 15.4747 28.1993 15.4704 28.1883C15.4661 28.1773 15.4595 28.1674 15.451 28.1591C15.4426 28.1509 15.4325 28.1445 15.4214 28.1405C14.7034 27.8681 14.0199 27.5361 13.3624 27.1591C13.3504 27.152 13.3403 27.1421 13.3331 27.1303C13.3258 27.1184 13.3216 27.105 13.3208 27.0911C13.32 27.0772 13.3226 27.0634 13.3284 27.0507C13.3342 27.0381 13.343 27.0271 13.3541 27.0187C13.4928 26.915 13.6291 26.8081 13.7629 26.6982C13.7746 26.6885 13.7888 26.6823 13.8039 26.6803C13.819 26.6782 13.8343 26.6804 13.8482 26.6866C18.1681 28.6589 22.8447 28.6589 27.1135 26.6866C27.1275 26.68 27.143 26.6775 27.1583 26.6794C27.1736 26.6812 27.1881 26.6874 27.2 26.6972C27.3339 26.8077 27.4706 26.9149 27.6099 27.0187C27.621 27.027 27.6299 27.0379 27.6358 27.0505C27.6417 27.0631 27.6444 27.0769 27.6437 27.0908C27.643 27.1047 27.6388 27.1182 27.6317 27.1301C27.6245 27.142 27.6146 27.1519 27.6026 27.1591C26.9448 27.5432 26.2556 27.8712 25.5426 28.1394C25.5315 28.1437 25.5215 28.1502 25.5131 28.1586C25.5047 28.1669 25.4982 28.177 25.494 28.1881C25.4898 28.1992 25.4879 28.211 25.4886 28.2228C25.4893 28.2347 25.4924 28.2462 25.4979 28.2567C25.8927 29.0194 26.343 29.7521 26.8451 30.4489C26.8553 30.4632 26.8698 30.4739 26.8864 30.4795C26.903 30.4851 26.921 30.4854 26.9377 30.4803C29.0945 29.8132 31.2815 28.8066 33.5393 27.1485C33.5489 27.1414 33.557 27.1323 33.5629 27.1218C33.5688 27.1114 33.5725 27.0998 33.5736 27.0878C34.1239 21.3942 32.6517 16.4483 29.6709 12.064C29.6636 12.0498 29.6514 12.0386 29.6366 12.0326ZM16.1123 24.0881C14.8116 24.0881 13.74 22.8941 13.74 21.4277C13.74 19.9613 14.7909 18.7673 16.1123 18.7673C17.4439 18.7673 18.5052 19.9718 18.4843 21.4277C18.4843 22.8941 17.4335 24.0881 16.1123 24.0881ZM24.883 24.0881C23.5823 24.0881 22.5108 22.8941 22.5108 21.4277C22.5108 19.9613 23.5616 18.7673 24.883 18.7673C26.2146 18.7673 27.2759 19.9718 27.2552 21.4277C27.2552 22.8941 26.2146 24.0881 24.883 24.0881Z" fill="white"/>
</g>
</svg>
