<svg width="240" height="80" viewBox="0 0 240 80" fill="none" xmlns="http://www.w3.org/2000/svg">
<g clip-path="url(#clip0_3833_274)">
<path d="M45.1668 7.46721L42.0032 6.95111C23.708 3.96643 6.45597 16.3709 3.46984 34.6572L2.70234 39.3572C-0.28379 57.6436 12.1267 74.8872 30.422 77.8718L33.5856 78.3879C51.8809 81.3726 69.1329 68.9682 72.119 50.6818L72.8865 45.9818C75.8726 27.6955 63.4621 10.4519 45.1668 7.46721Z" fill="#F7F7F8"/>
<path d="M32.5493 78.3632C30.2265 77.9789 27.846 77.6661 25.5703 77.0407C8.30374 72.4585 -2.91543 55.9969 0.665826 38.2357C0.93324 36.7822 1.20065 35.3182 1.49603 33.87C4.06181 20.7609 14.8143 9.98917 27.6852 6.787C29.7231 6.29087 31.8082 5.94322 33.9021 5.79822C36.8716 5.56413 39.925 5.81744 42.8753 6.2734C46.1735 6.66821 49.4611 7.39494 52.5407 8.65973C66.1142 14.1032 75.0262 28.6257 73.6962 43.1988C73.5528 45.2881 72.9708 48.2335 72.6317 50.3246C72.0305 53.9548 70.9049 57.5273 69.1921 60.7853C62.3109 74.008 47.0404 80.8176 32.5493 78.3632ZM32.5947 78.0872C49.9312 80.9714 66.1701 68.4597 69.4298 51.5387C69.5154 51.0513 69.6552 50.3333 69.7269 49.8512C69.9174 48.6475 70.3753 45.8052 70.5256 44.6417C72.8432 27.4797 61.271 11.6296 44.3452 8.21601C43.3665 8.00463 41.8686 7.74258 40.8724 7.54518C23.7666 4.20326 7.15368 15.4501 3.88703 32.5493C3.76643 33.0245 3.67205 33.753 3.58641 34.2404C3.54796 34.4535 3.48504 34.8867 3.45707 35.1016C3.22811 36.8398 2.95021 38.5938 2.74222 40.3338C1.0853 53.4342 7.63258 67.3364 19.224 73.9067C21.2532 75.0702 23.4223 76.0013 25.6717 76.6774C27.9264 77.3727 30.2702 77.6993 32.593 78.0889L32.5947 78.0872Z" fill="#2A273A"/>
<path d="M7.33556 21.7865C6.83919 19.7111 6.40224 17.3423 6.13133 14.7218C5.86042 12.1031 5.80623 9.70807 5.86915 7.596C5.85692 7.48419 5.66816 5.23586 7.63793 3.91517C8.81421 3.12554 10.4169 2.88446 11.9533 3.51686C13.6714 3.74921 15.8631 4.20342 18.2803 5.12057C21.3844 6.29976 23.7212 7.80913 25.296 9.00579" fill="#F7F7F8"/>
<path d="M7.20101 21.8177C5.65071 19.2899 4.81875 15.9846 4.76807 13.041C4.77681 11.8164 5.01451 10.59 5.20851 9.38464C5.30289 8.87803 5.39203 7.9207 5.43223 7.63944C5.42175 7.40534 5.43398 7.22017 5.45146 7.01577C5.55807 5.57279 6.2135 4.15601 7.34084 3.22314C8.6884 2.04045 10.7473 1.67883 12.4462 2.32171L12.1281 2.23611C16.0309 2.43701 19.6646 3.72451 22.7285 6.172C23.7195 6.96861 24.6336 7.85955 25.3817 8.89375L25.2122 9.11561C24.0236 8.68062 22.9051 8.22816 21.7847 7.81937C19.5842 6.98607 17.3785 6.32922 15.1395 5.67586C14.0349 5.34743 12.9198 5.02949 11.7785 4.79365L11.5251 4.74124L11.4587 4.70805C10.1968 4.07041 8.49439 4.00752 7.3286 4.94563C6.55782 5.56056 6.18728 6.64193 6.30439 7.60799C6.32711 9.39338 6.91437 11.1246 7.18528 12.8716C7.43172 14.615 7.48416 16.3515 7.55407 18.1212C7.57504 19.3073 7.59427 20.5005 7.46843 21.7531L7.19577 21.8177H7.20101Z" fill="#2A273A"/>
<path d="M11.5461 17.8593C11.3189 16.9089 11.1179 15.8241 10.9938 14.6239C10.8697 13.4255 10.8452 12.3284 10.8732 11.3606C10.868 11.3099 10.7806 10.281 11.6824 9.67479C12.2208 9.31317 12.9549 9.20311 13.6575 9.49136C14.444 9.59792 15.4472 9.80581 16.5553 10.2268C17.9763 10.7666 19.046 11.4584 19.7678 12.0052C17.0272 13.9548 14.2849 15.9062 11.5444 17.8558L11.5461 17.8593Z" fill="#2A273A"/>
<path d="M53.2556 11.4145C55.4299 10.88 57.9223 10.3908 60.6978 10.0484C63.4698 9.70602 66.0198 9.575 68.278 9.56277C68.3969 9.5488 70.7791 9.29549 72.3417 11.0914C73.275 12.1657 73.6578 13.6541 73.1037 15.1128C72.9901 16.727 72.6755 18.7919 71.8837 21.0839C70.8683 24.0258 69.4386 26.2637 68.285 27.7748" fill="#F7F7F8"/>
<path d="M53.2224 11.28C55.769 9.68505 59.5005 8.66832 62.4893 8.68928C64.4136 8.74868 66.3659 9.20638 68.2745 9.14349C69.6605 9.00199 71.6985 9.34264 72.9254 10.4275C74.4303 11.6312 74.9983 13.7415 74.3621 15.5932L74.446 15.2089C74.495 18.8583 73.2313 22.499 70.9644 25.3535C70.2163 26.2968 69.3704 27.1563 68.3934 27.8621L68.1714 27.6926C68.5839 26.5763 68.9981 25.5177 69.3686 24.4625C70.4558 21.3669 71.2213 18.2434 71.7561 15.0202L71.7998 14.7198C72.3207 13.7624 72.1774 12.5466 71.6198 11.6172C71.0063 10.5026 69.5679 9.84926 68.292 9.98552C66.3974 9.94185 64.5395 10.5847 62.706 11.0022C60.8691 11.3901 59.0199 11.4739 57.141 11.5892C55.8843 11.6416 54.6172 11.6766 53.2888 11.5543L53.2224 11.2835V11.28Z" fill="#2A273A"/>
<path d="M57.7703 15.2179C58.7666 14.9733 59.9079 14.7497 61.1768 14.5925C62.4457 14.4353 63.6132 14.3759 64.6479 14.3706C64.7021 14.3636 65.7927 14.2483 66.5076 15.0711C66.9341 15.562 67.1106 16.2451 66.8554 16.9124C66.803 17.6514 66.6596 18.5965 66.2979 19.6464C65.8329 20.9933 65.1793 22.017 64.6497 22.7106C62.3566 20.2142 60.0634 17.716 57.7686 15.2196L57.7703 15.2179Z" fill="#2A273A"/>
<path d="M60.5773 26.0349L58.5778 25.4322C58.1164 25.3116 57.578 25.1911 57.1166 25.1317C56.6552 25.0723 56.192 25.0723 55.7306 25.1911C55.1923 25.3116 54.3446 25.6715 53.1159 26.1537C51.8854 26.6952 49.0383 28.3199 44.4992 31.0294C42.1921 32.4741 40.0371 33.5572 38.2683 34.3399C38.6528 33.5572 39.8081 31.8732 41.6538 29.1637C42.8073 27.5984 43.884 25.9737 44.9606 24.3473C46.3449 22.1199 47.1157 20.8551 47.4233 20.6752L47.9616 20.1337L48.6537 19.1099C48.8076 18.9894 48.8076 18.93 48.7306 18.9894C49.8073 16.8826 49.4245 15.4378 47.4233 14.4753C46.5756 14.1137 45.5776 13.8132 44.3454 13.6926C43.1149 13.5721 41.8845 13.5127 40.7292 13.5721C39.5756 13.5721 38.4972 13.6315 37.4992 13.752C36.4995 13.8726 35.8074 13.9931 35.3442 14.173C34.8828 14.353 34.4214 14.4735 34.0368 14.6535C33.5754 14.774 33.1892 14.9539 32.8046 15.195C32.4201 15.4361 31.9587 16.037 31.4204 16.8808C29.6516 16.3987 28.2673 17.0608 27.2658 18.9265C26.1123 20.7329 25.0339 22.9602 24.1897 25.5475C23.8052 26.6917 23.4189 27.836 23.1113 29.0396C22.7268 30.2433 22.1885 31.8679 21.4194 34.0359C20.6504 36.1427 19.6506 38.7911 18.574 42.0405C17.4956 45.2915 16.2651 49.023 14.7271 53.2961C12.4951 59.3755 11.6492 63.0458 12.1875 64.3106C12.9583 65.6348 14.5733 66.4174 16.9573 66.5974C19.1123 66.7773 20.958 66.4174 22.5747 65.5737C23.5745 64.4294 24.4973 63.1052 25.1894 61.6011C25.9602 60.1564 26.7293 58.7728 27.4214 57.3874L28.8074 54.6797C29.115 54.8002 29.3457 54.8002 29.4226 54.8002C30.6531 54.9207 32.885 55.8833 35.9629 57.7491C37.2703 58.5911 38.6545 59.4349 39.9619 60.3363C41.2693 61.2395 42.5766 62.0815 43.7319 62.8641C46.5005 64.6093 48.2692 65.392 49.1938 65.2714C51.1164 65.0304 52.4238 64.7299 53.2715 64.4277C54.0405 64.1272 54.5019 63.645 54.5788 63.1035C54.6557 62.5025 54.425 61.6587 53.8849 60.5756C53.3484 59.5519 52.6545 57.8679 51.7316 55.6387C50.8857 53.4131 49.4245 51.3046 47.4233 49.1977C44.8837 46.6087 42.3442 45.164 39.5756 44.9229C41.4982 44.5613 43.3457 44.1403 45.1144 43.5987C51.0378 41.9741 56.3458 38.7841 61.0404 34.0289C62.1171 33.0052 62.5785 31.5605 62.5785 29.5742C62.4247 27.5285 61.8077 26.3843 60.579 26.0226L60.5773 26.0349Z" fill="#2A273A"/>
<path d="M64.1479 41.8153C64.1671 40.1679 64.0343 38.8263 63.7564 37.7816C63.4715 36.7387 63.482 35.8599 63.7861 35.1594C64.085 34.4589 64.5709 33.9645 65.2333 33.685C65.8957 33.4055 66.6805 33.3129 67.5824 33.416C68.4842 33.5138 69.3774 33.7881 70.2635 34.23C72.3906 35.1909 73.8762 36.557 74.7204 38.3214C74.9214 39.2036 74.8532 40.3007 74.5089 41.6039C74.1663 42.9071 73.7731 44.2558 73.3326 45.6376C72.8922 47.0247 72.4692 48.3664 72.0672 49.6714C71.6652 50.9798 71.5079 52.0734 71.5866 52.9539C72.63 52.3127 73.5424 51.3519 74.3271 50.0627C75.1119 48.7787 75.832 47.4073 76.4997 45.9416C77.1621 44.4759 77.7843 43.0207 78.3628 41.576C78.9466 40.1295 79.5094 38.9835 80.0547 38.1415C80.5948 37.2994 81.0247 36.6269 81.3498 36.1272C81.6679 35.6224 81.9913 35.1716 82.3111 34.7698C82.8355 34.0885 83.5171 33.4264 84.3613 32.7853C84.6008 32.5844 85.3366 32.6141 86.5635 32.8726C87.7835 33.1329 88.6906 33.3129 89.2744 33.416C89.8529 33.5138 90.2444 33.4841 90.4454 33.3234L91.2879 32.7207C92.4152 32.1616 93.74 32.1809 95.2641 32.7836C96.7498 33.4247 97.5345 34.4047 97.6132 35.7342C97.5747 35.7726 97.5537 35.8512 97.5537 35.9735L97.7355 36.0329L97.3143 36.3963C97.0346 36.9203 96.8232 37.268 96.6816 37.4497C96.54 37.6313 96.2499 37.9004 95.8094 38.2637C93.0794 41.1934 89.9455 46.6334 86.4115 54.582C85.5288 56.5474 84.7248 58.317 83.9995 59.8788C85.0884 60.5601 85.9064 61.4476 86.4709 62.5307C87.0354 63.6138 87.0354 64.8 86.4709 66.084C83.1378 68.7359 81.2694 71.22 80.8674 73.5522C80.6664 74.9987 80.4165 76.0172 80.1176 76.6199C79.8135 77.2226 79.3433 77.806 78.7002 78.3686C76.5329 79.9705 73.9793 79.5687 71.0465 77.1632C68.9579 75.0756 68.86 72.4639 70.7476 69.3316C71.2283 68.4895 71.6897 67.6073 72.1354 66.6849C72.7768 65.3171 73.8028 63.2889 75.2045 60.6038C71.7526 62.6075 68.5804 62.5691 65.6877 60.4815C63.6376 58.918 62.9175 55.3647 63.5152 49.8233C63.9172 46.1338 64.1287 43.4627 64.1532 41.8153H64.1479Z" fill="#2A273A"/>
<path d="M104.115 33.8071C105.242 32.7187 106.497 32.0863 107.88 31.9064C109.268 31.7299 110.493 31.8767 111.557 32.3623C112.622 32.8428 113.406 33.6167 113.906 34.6805C114.411 35.7444 114.338 36.9586 113.695 38.3212C112.332 40.3302 111.243 42.4964 110.444 44.8234C109.64 47.1503 108.895 49.5035 108.214 51.8706C111.91 49.5436 114.999 46.0689 117.489 41.4517C118.215 40.0891 118.999 38.702 119.842 37.2957L120.744 35.6099L122.553 32.7187C122.792 31.9588 123.215 31.4644 123.818 31.2443C124.416 31.0242 125.073 30.9159 125.774 30.9159C126.475 30.9159 127.191 30.9263 127.912 30.9456C128.637 30.9648 129.299 30.7744 129.902 30.3726C130.505 29.9708 131.217 29.824 132.04 29.9218C132.863 30.0249 133.604 30.2939 134.27 30.7359C134.932 31.1762 135.432 31.7107 135.775 32.3326C136.114 32.9546 136.142 33.5625 135.862 34.1652C134.176 37.7814 131.867 44.5054 128.934 54.3408C128.252 56.5454 127.611 58.3937 127.008 59.8786C126.003 61.1242 124.737 61.9662 123.213 62.4065C121.684 62.8467 120.253 62.9795 118.903 62.7978C117.559 62.6161 116.486 62.1566 115.682 61.4159C114.878 60.6717 114.696 59.7406 115.139 58.6121C114.016 59.538 112.849 60.3817 111.643 61.1399C110.442 61.9051 108.986 62.4047 107.279 62.6493C105.568 62.8886 103.935 62.8152 102.366 62.4379C100.801 62.0553 99.4625 61.3198 98.3596 60.2367C97.2567 59.1536 96.6625 57.7089 96.5803 55.899C96.3409 49.5576 98.8507 42.1924 104.112 33.8036L104.115 33.8071Z" fill="#2A273A"/>
<path d="M147.309 35.6099C149.319 32.6016 152.108 30.7935 155.682 30.1908C156.85 29.9899 158.287 29.8519 159.992 29.7698C161.698 29.6912 163.165 30.0738 164.39 30.9158C165.615 31.7578 166.527 32.841 167.13 34.1652C168.174 36.5375 168.336 39.4479 167.611 42.8982C167.209 44.7849 166.728 46.862 166.169 49.1313C165.605 51.4006 164.762 53.6402 163.635 55.8449C162.513 58.0548 161.046 60.1179 159.237 62.0483C157.434 63.9734 155.085 65.4985 152.192 66.6253C150.462 67.3066 148.946 67.5564 147.642 67.3747C146.339 67.1931 145.363 66.924 144.72 66.5607C144.079 66.2025 143.636 65.6785 143.397 64.9971C142.593 67.2857 141.838 69.6039 141.137 71.95C140.431 74.2979 139.499 76.5375 138.332 78.6636C137.533 79.1824 136.547 79.5755 135.38 79.8393C134.218 80.0996 133.071 80.0402 131.947 79.6576C130.825 79.275 130.011 78.5937 129.505 77.6084C129.006 76.6231 128.756 75.5505 128.756 74.3888C128.756 72.82 129.138 70.9141 129.899 68.6657C131.026 65.3343 131.938 62.7663 132.639 60.9582C133.345 59.1553 133.796 57.9779 133.997 57.4398C134.198 56.8965 134.399 56.3218 134.6 55.7191C135.483 53.3921 136.135 51.4949 136.556 50.0292C136.977 48.5635 137.371 47.29 137.732 46.2069V46.1475C138.129 44.3778 138.762 42.5016 139.63 40.5171C140.494 38.5273 141.086 37.3114 141.404 36.8712C142.086 36.1899 142.792 35.7689 143.512 35.6064C144.238 35.4492 145.061 35.3461 145.984 35.3077H146.166L147.309 35.6064V35.6099ZM151.888 45.6671C151.407 46.5091 150.603 47.2935 149.481 48.0185L148.938 49.2833C148.536 50.3262 148.153 51.3901 147.794 52.4732C147.431 53.5563 147.029 54.6202 146.588 55.6632C146.99 56.065 147.289 56.4475 147.49 56.8092C149.742 54.8386 151.79 52.2514 153.639 49.037C154.359 47.7145 154.831 46.3903 155.051 45.0627C155.272 43.7402 155.326 42.8964 155.203 42.5348C155.086 42.1767 154.894 41.995 154.63 41.995C154.366 41.995 154.111 42.0631 153.851 42.2064C153.587 42.3479 153.386 42.4859 153.248 42.6274C153.106 42.7689 153.115 42.7741 153.277 42.6571C152.837 43.1759 152.512 43.6319 152.311 44.0092C152.11 44.3918 151.972 44.9456 151.89 45.6653L151.888 45.6671Z" fill="#2A273A"/>
<path d="M195.812 34.4048L196.051 34.4677C196.13 34.4677 196.174 34.4869 196.174 34.5271C197.217 34.1253 198.081 34.4293 198.762 35.4285C199.203 36.1151 199.547 37.158 199.787 38.5591C199.865 40.4895 199.664 43.1553 199.184 46.5706C198.257 53.4746 197.757 57.5869 197.679 58.9146C197.757 60.3156 196.894 61.2817 195.085 61.8006C193.521 62.2862 191.953 62.2653 190.389 61.7412C188.74 61.1769 188.06 60.3156 188.338 59.1539C188.02 59.7566 187.697 60.1881 187.377 60.4484C187.054 60.7087 186.421 61.0703 185.479 61.5315C184.533 61.9927 183.195 62.3736 181.468 62.6775C179.743 62.9763 178.016 63.0549 176.291 62.9169C174.56 62.7754 172.986 62.3526 171.559 61.6521C170.133 60.9463 169.182 59.8545 168.697 58.3695C167.775 55.4783 167.898 51.808 169.06 47.348C169.864 44.4184 171.311 41.8294 173.4 39.5811C175.807 37.013 178.538 34.887 181.592 33.2012C183.881 31.9556 186.087 31.2114 188.221 30.9721C188.941 30.8935 189.574 30.9127 190.119 31.0315C190.659 31.1538 191.241 31.2708 191.865 31.3948C192.488 31.5171 193.082 31.6936 193.645 31.9381C195.087 32.5408 195.812 33.3636 195.812 34.4031V34.4048ZM184.668 50.3667C184.948 49.8025 185.178 49.102 185.36 48.2599C185.542 47.4179 185.792 46.4903 186.115 45.4858C182.859 46.8134 180.368 48.4399 178.643 50.3667C176.756 52.4928 176.873 53.9585 179.007 54.7621C180.851 55.2425 182.198 54.9438 183.043 53.8554C183.406 53.375 183.724 52.7723 184.004 52.0526C184.289 51.3276 184.626 50.5869 185.028 49.8234C184.911 50.0243 184.789 50.206 184.67 50.3667H184.668Z" fill="#2A273A"/>
<path d="M212.738 35.61C214.223 34.6108 215.934 34.3068 217.86 34.7086C219.787 35.1488 220.87 35.9926 221.111 37.2364C221.435 36.4713 221.676 35.7131 221.837 34.9479C223.646 26.7984 225.631 20.5757 227.799 16.2817C228.485 14.954 229.186 14.0317 229.912 13.5128C231.799 12.3074 233.785 12.1449 235.873 13.0272C236.716 13.3905 237.378 13.8797 237.864 14.5016C238.345 15.1235 238.535 15.6965 238.432 16.2171C238.334 16.7412 238.373 17.1622 238.555 17.4871C238.736 17.8051 238.946 18.1283 239.187 18.4479C239.829 19.2131 240.089 19.8735 239.972 20.4377C239.168 23.6084 238.095 26.891 236.746 30.2818C235.401 33.6726 234.024 37.0548 232.622 40.4264C231.215 43.798 229.941 47.1207 228.793 50.3945C227.65 53.6683 226.895 56.7691 226.533 59.6953C226.533 60.4604 226.215 61.1505 225.572 61.7724C224.93 62.3943 224.125 62.8905 223.16 63.2468C220.87 64.0504 218.743 63.888 216.777 62.7664V62.4031C216.375 62.286 216.081 62.2022 215.905 62.1637C215.723 62.1253 215.59 62.0467 215.513 61.9244C215.391 61.7235 215.293 61.1016 215.209 60.0569C214.405 61.3025 213.626 62.0659 212.86 62.3454C212.094 62.6249 211.315 62.7664 210.511 62.7664C206.613 62.7664 203.843 62.0659 202.197 60.6596C200.749 59.4542 200.07 57.4889 200.146 54.7601C200.23 51.7065 201.352 48.2964 203.52 44.523C206.01 40.2255 209.085 37.2557 212.738 35.6083V35.61ZM212.678 55.3646C213.963 55.8048 214.851 55.5026 215.331 54.4579C215.611 53.9391 215.88 53.2577 216.146 52.414C216.406 51.5719 216.738 50.5867 217.137 49.4599L217.382 48.2597C216.415 47.6954 215.543 47.6186 214.758 48.0204C213.973 48.4222 213.341 49.0389 212.86 49.8826C212.379 50.7247 212.094 51.6715 212.018 52.7144C211.934 53.7574 212.159 54.6396 212.68 55.3663L212.678 55.3646Z" fill="#2A273A"/>
</g>
<defs>
<clipPath id="clip0_3833_274">
<rect width="240" height="80" fill="white"/>
</clipPath>
</defs>
</svg>
