<svg width="40" height="40" viewBox="0 0 40 40" fill="none" xmlns="http://www.w3.org/2000/svg">
<rect width="40" height="40" rx="4" fill="#25252C"/>
<path d="M28.9915 13.1976C28.9412 13.9339 28.579 16.5109 28.2066 19.2951L27.0595 27.5554C27.0595 27.5554 26.969 28.7634 26.1841 28.9705C25.3992 29.1776 24.1112 28.2342 23.8798 28.0271C23.6987 27.8661 20.4284 25.5076 19.2309 24.3456C18.9089 24.035 18.5366 23.4022 19.2812 22.6659C20.9416 20.9287 22.9138 18.7773 24.1112 17.4083C24.6647 16.7755 25.2181 15.3029 22.9138 17.0977L16.4235 22.0907C16.4235 22.0907 15.6889 22.6199 14.3104 22.1482C12.9318 21.6765 11.3218 21.0438 11.3218 21.0438C11.3218 21.0438 10.215 20.2499 12.1067 19.4101L22.8232 14.3595C23.8798 13.8303 27.4721 12.1506 27.4721 12.1506C27.4721 12.1506 29.1324 11.4143 28.9915 13.1976Z" fill="#F7F7F8"/>
</svg>
