<svg width="25" height="25" viewBox="0 0 25 25" fill="none" xmlns="http://www.w3.org/2000/svg">
<path d="M4.516 21.484C3.36988 20.377 2.45569 19.0529 1.82678 17.5889C1.19787 16.1248 0.866838 14.5502 0.852992 12.9568C0.839146 11.3635 1.14277 9.78331 1.74614 8.30855C2.34951 6.83379 3.24055 5.49397 4.36726 4.36726C5.49397 3.24055 6.83379 2.34951 8.30855 1.74614C9.78331 1.14277 11.3635 0.839146 12.9568 0.852992C14.5502 0.866838 16.1248 1.19787 17.5889 1.82678C19.0529 2.45569 20.377 3.36988 21.484 4.516C23.6699 6.77922 24.8794 9.81045 24.8521 12.9568C24.8247 16.1032 23.5627 19.1129 21.3378 21.3378C19.1129 23.5627 16.1032 24.8247 12.9568 24.8521C9.81045 24.8794 6.77922 23.6699 4.516 21.484ZM14.68 13L18.076 9.604L16.384 7.912L13 11.308L9.604 7.912L7.912 9.604L11.308 13L7.912 16.396L9.604 18.088L13 14.692L16.396 18.088L18.088 16.396L14.692 13H14.68Z" fill="#31313A"/>
</svg>
