<svg width="60" height="60" viewBox="0 0 60 60" fill="none" xmlns="http://www.w3.org/2000/svg">
<path d="M35.1164 8.84822L33.0601 8.51275C21.1681 6.57271 9.95435 14.6356 8.01337 26.5217L7.51449 29.5767C5.57351 41.4629 13.6403 52.6712 25.5323 54.6112L27.5886 54.9467C39.4805 56.8867 50.6943 48.8238 52.6353 36.9377L53.1342 33.8827C55.0752 21.9966 47.0084 10.7883 35.1164 8.84822Z" fill="#F44646"/>
<path d="M26.9152 54.9307C25.4053 54.6809 23.858 54.4776 22.3788 54.0711C11.1556 51.0927 3.8631 40.3927 6.19092 28.8478C6.36474 27.9031 6.53856 26.9515 6.73055 26.0102C8.39831 17.4892 15.3874 10.4876 23.7535 8.4062C25.0781 8.08372 26.4335 7.85775 27.7945 7.7635C29.7247 7.61134 31.7094 7.77599 33.6271 8.07236C35.7709 8.32899 37.9078 8.80136 39.9096 9.62348C48.7323 13.1618 54.5252 22.6013 53.6606 32.0738C53.5675 33.4319 53.1892 35.3464 52.9688 36.7056C52.5779 39.0652 51.8463 41.3874 50.733 43.5051C46.2602 52.0999 36.3344 56.5261 26.9152 54.9307ZM26.9447 54.7513C38.2134 56.626 48.7687 48.4935 50.8875 37.4948C50.9431 37.178 51.034 36.7113 51.0806 36.3979C51.2044 35.6155 51.5021 33.768 51.5998 33.0118C53.1062 21.8564 45.5843 11.5539 34.5825 9.33506C33.9463 9.19766 32.9727 9.02733 32.3252 8.89902C21.2064 6.72677 10.408 14.0372 8.2847 25.1517C8.20631 25.4606 8.14496 25.9341 8.0893 26.2509C8.0643 26.3894 8.0234 26.671 8.00523 26.8107C7.8564 27.9405 7.67577 29.0806 7.54057 30.2116C6.46357 38.7269 10.7193 47.7633 18.2537 52.034C19.5727 52.7903 20.9826 53.3955 22.4447 53.8349C23.9103 54.2869 25.4337 54.4992 26.9436 54.7524L26.9447 54.7513Z" fill="#2A273A"/>
<path d="M10.5262 18.1558C10.2035 16.8068 9.91952 15.267 9.74343 13.5638C9.56734 11.8616 9.53212 10.3048 9.57302 8.93198C9.56507 8.85931 9.44237 7.39789 10.7227 6.53944C11.4873 6.02618 12.5291 5.86948 13.5277 6.28054C14.6445 6.43156 16.0691 6.7268 17.6403 7.32295C19.6579 8.08942 21.1769 9.07051 22.2005 9.84834" fill="#F44646"/>
<path d="M10.4386 18.1761C9.4309 16.533 8.89012 14.3846 8.85718 12.4713C8.86286 11.6753 9.01736 10.8782 9.14347 10.0946C9.20482 9.76535 9.26276 9.14308 9.28889 8.96026C9.28207 8.8081 9.29002 8.68774 9.30138 8.55488C9.37068 7.61694 9.79671 6.69604 10.5295 6.08967C11.4054 5.32092 12.7437 5.08587 13.848 5.50374L13.6412 5.4481C16.178 5.57868 18.5399 6.41556 20.5315 8.00643C21.1756 8.52422 21.7698 9.10334 22.256 9.77557L22.1458 9.91978C21.3733 9.63703 20.6462 9.34293 19.918 9.07722C18.4877 8.53558 17.054 8.10862 15.5986 7.68394C14.8806 7.47046 14.1558 7.2638 13.414 7.1105L13.2492 7.07643L13.2061 7.05486C12.3858 6.6404 11.2793 6.59952 10.5215 7.20929C10.0205 7.60899 9.77967 8.31188 9.85579 8.93982C9.87056 10.1003 10.2523 11.2256 10.4284 12.3611C10.5886 13.4944 10.6226 14.6231 10.6681 15.7734C10.6817 16.5444 10.6942 17.32 10.6124 18.1341L10.4352 18.1761H10.4386Z" fill="#2A273A"/>
<path d="M13.2628 15.603C13.1151 14.9853 12.9844 14.2801 12.9038 13.5C12.8231 12.7211 12.8072 12.0079 12.8254 11.3789C12.822 11.3459 12.7652 10.6771 13.3514 10.2831C13.7013 10.048 14.1784 9.9765 14.6351 10.1639C15.1464 10.2331 15.7985 10.3683 16.5188 10.6419C17.4424 10.9928 18.1377 11.4425 18.6069 11.7979C16.8255 13.0651 15.043 14.3335 13.2616 15.6007L13.2628 15.603Z" fill="#2A273A"/>
<path d="M40.374 11.4143C41.7873 11.0668 43.4073 10.7489 45.2114 10.5263C47.0132 10.3037 48.6708 10.2186 50.1386 10.2106C50.2158 10.2015 51.7643 10.0369 52.7799 11.2042C53.3866 11.9026 53.6354 12.87 53.2753 13.8182C53.2014 14.8674 52.9969 16.2096 52.4823 17.6994C51.8222 19.6116 50.8929 21.0662 50.1431 22.0484" fill="#F44646"/>
<path d="M40.3525 11.3268C42.0078 10.29 44.4333 9.62916 46.376 9.64278C47.6268 9.68139 48.8958 9.9789 50.1364 9.93802C51.0373 9.84604 52.362 10.0675 53.1595 10.7726C54.1377 11.555 54.5069 12.9267 54.0934 14.1304L54.1479 13.8805C54.1797 16.2526 53.3583 18.6191 51.8848 20.4745C51.3986 21.0877 50.8487 21.6464 50.2137 22.1051L50.0694 21.995C50.3375 21.2694 50.6067 20.5812 50.8476 19.8954C51.5542 17.8833 52.0518 15.8529 52.3995 13.7579L52.4279 13.5626C52.7664 12.9403 52.6733 12.15 52.3109 11.5459C51.9121 10.8215 50.9771 10.3968 50.1478 10.4853C48.9163 10.457 47.7086 10.8748 46.5169 11.1462C45.3229 11.3983 44.1209 11.4528 42.8996 11.5277C42.0828 11.5618 41.2591 11.5845 40.3957 11.505L40.3525 11.329V11.3268Z" fill="#2A273A"/>
<path d="M43.3085 13.8861C43.9561 13.7271 44.6979 13.5818 45.5227 13.4796C46.3475 13.3774 47.1064 13.3388 47.779 13.3354C47.8142 13.3308 48.5231 13.2559 48.9877 13.7907C49.2649 14.1098 49.3797 14.5538 49.2138 14.9876C49.1797 15.4679 49.0866 16.0822 48.8514 16.7647C48.5492 17.6401 48.1243 18.3056 47.7801 18.7564C46.2896 17.1337 44.799 15.5099 43.3074 13.8872L43.3085 13.8861Z" fill="#2A273A"/>
<path d="M25.2749 21.3821C21.5532 19.0667 13.1006 24.1359 17.2695 26.2954C25.9692 30.8026 34.9925 37.6635 39.3173 45.2452C40.2912 46.9546 41.5827 49.723 40.4236 43.3976C38.8966 35.0421 27.9168 23.0268 25.2749 21.3821Z" fill="white"/>
<path d="M42.933 28.3432C45.4897 24.7862 40.9912 16.013 38.5582 20.0318C33.4831 28.4108 26.0367 36.9605 18.1873 40.7734C16.4191 41.6325 13.5683 42.7357 19.9555 42.0002C28.3963 41.0264 41.1148 30.8704 42.933 28.3432Z" fill="white"/>
</svg>
