<svg width="60" height="60" viewBox="0 0 60 60" fill="none" xmlns="http://www.w3.org/2000/svg">
<path d="M35.1164 8.84822L33.0601 8.51275C21.1681 6.57271 9.95435 14.6356 8.01337 26.5217L7.51449 29.5767C5.57351 41.4629 13.6403 52.6712 25.5323 54.6112L27.5886 54.9467C39.4805 56.8867 50.6943 48.8238 52.6353 36.9377L53.1342 33.8827C55.0752 21.9966 47.0084 10.7883 35.1164 8.84822Z" fill="#F8A627"/>
<path d="M26.9152 54.9305C25.4053 54.6807 23.858 54.4774 22.3788 54.0709C11.1556 51.0924 3.8631 40.3924 6.19092 28.8476C6.36474 27.9028 6.53856 26.9513 6.73055 26.0099C8.39831 17.489 15.3874 10.4874 23.7535 8.40596C25.0781 8.08347 26.4335 7.8575 27.7945 7.76325C29.7247 7.6111 31.7094 7.77575 33.6271 8.07212C35.7709 8.32874 37.9078 8.80112 39.9096 9.62324C48.7323 13.1615 54.5252 22.6011 53.6606 32.0736C53.5675 33.4317 53.1892 35.3462 52.9688 36.7054C52.5779 39.065 51.8463 41.3871 50.733 43.5049C46.2602 52.0996 36.3344 56.5259 26.9152 54.9305ZM26.9447 54.7511C38.2134 56.6258 48.7687 48.4932 50.8875 37.4946C50.9431 37.1778 51.034 36.7111 51.0806 36.3977C51.2044 35.6153 51.5021 33.7678 51.5998 33.0115C53.1062 21.8562 45.5843 11.5536 34.5825 9.33481C33.9463 9.19742 32.9727 9.02709 32.3252 8.89877C21.2064 6.72653 10.408 14.037 8.2847 25.1515C8.20631 25.4603 8.14496 25.9338 8.0893 26.2507C8.0643 26.3892 8.0234 26.6708 8.00523 26.8105C7.8564 27.9403 7.67577 29.0804 7.54057 30.2113C6.46357 38.7266 10.7193 47.7631 18.2537 52.0338C19.5727 52.79 20.9826 53.3953 22.4447 53.8347C23.9103 54.2866 25.4337 54.499 26.9436 54.7522L26.9447 54.7511Z" fill="#2A273A"/>
<path d="M10.5262 18.1556C10.2035 16.8066 9.91952 15.2668 9.74343 13.5635C9.56734 11.8614 9.53212 10.3046 9.57302 8.93174C9.56507 8.85906 9.44237 7.39765 10.7227 6.5392C11.4873 6.02594 12.5291 5.86924 13.5277 6.2803C14.6445 6.43132 16.0691 6.72656 17.6403 7.3227C19.6579 8.08918 21.1769 9.07027 22.2005 9.8481" fill="#F8A627"/>
<path d="M10.4386 18.1759C9.4309 16.5328 8.89012 14.3844 8.85718 12.471C8.86286 11.675 9.01736 10.8779 9.14347 10.0944C9.20482 9.7651 9.26276 9.14284 9.28889 8.96002C9.28207 8.80786 9.29002 8.68749 9.30138 8.55464C9.37068 7.6167 9.79671 6.69579 10.5295 6.08942C11.4054 5.32068 12.7437 5.08562 13.848 5.5035L13.6412 5.44785C16.178 5.57844 18.5399 6.41532 20.5315 8.00618C21.1756 8.52398 21.7698 9.10309 22.256 9.77532L22.1458 9.91953C21.3733 9.63679 20.6462 9.34269 19.918 9.07698C18.4877 8.53533 17.054 8.10838 15.5986 7.68369C14.8806 7.47022 14.1558 7.26355 13.414 7.11026L13.2492 7.07619L13.2061 7.05462C12.3858 6.64015 11.2793 6.59927 10.5215 7.20905C10.0205 7.60875 9.77967 8.31164 9.85579 8.93958C9.87056 10.1001 10.2523 11.2254 10.4284 12.3609C10.5886 13.4942 10.6226 14.6229 10.6681 15.7731C10.6817 16.5442 10.6942 17.3197 10.6124 18.1339L10.4352 18.1759H10.4386Z" fill="#2A273A"/>
<path d="M13.2628 15.603C13.1151 14.9853 12.9844 14.2801 12.9038 13.5C12.8231 12.7211 12.8072 12.0079 12.8254 11.3789C12.822 11.3459 12.7652 10.6771 13.3514 10.2831C13.7013 10.048 14.1784 9.9765 14.6351 10.1639C15.1464 10.2331 15.7985 10.3683 16.5188 10.6419C17.4424 10.9928 18.1377 11.4425 18.6069 11.7979C16.8255 13.0651 15.043 14.3335 13.2616 15.6007L13.2628 15.603Z" fill="#2A273A"/>
<path d="M40.374 11.4143C41.7873 11.0668 43.4073 10.7489 45.2114 10.5263C47.0132 10.3037 48.6708 10.2186 50.1386 10.2106C50.2158 10.2015 51.7643 10.0369 52.7799 11.2042C53.3866 11.9026 53.6354 12.87 53.2753 13.8182C53.2014 14.8674 52.9969 16.2096 52.4823 17.6994C51.8222 19.6116 50.8929 21.0662 50.1431 22.0484" fill="#F8A627"/>
<path d="M40.3525 11.3268C42.0078 10.29 44.4333 9.62916 46.376 9.64278C47.6268 9.68139 48.8958 9.9789 50.1364 9.93802C51.0373 9.84604 52.362 10.0675 53.1595 10.7726C54.1377 11.555 54.5069 12.9267 54.0934 14.1304L54.1479 13.8805C54.1797 16.2526 53.3583 18.6191 51.8848 20.4745C51.3986 21.0877 50.8487 21.6464 50.2137 22.1051L50.0694 21.995C50.3375 21.2694 50.6067 20.5812 50.8476 19.8954C51.5542 17.8833 52.0518 15.8529 52.3995 13.7579L52.4279 13.5626C52.7664 12.9403 52.6733 12.15 52.3109 11.5459C51.9121 10.8215 50.9771 10.3968 50.1478 10.4853C48.9163 10.457 47.7086 10.8748 46.5169 11.1462C45.3229 11.3983 44.1209 11.4528 42.8996 11.5277C42.0828 11.5618 41.2591 11.5845 40.3957 11.505L40.3525 11.329V11.3268Z" fill="#2A273A"/>
<path d="M43.3085 13.8864C43.9561 13.7274 44.6979 13.582 45.5227 13.4798C46.3475 13.3776 47.1064 13.339 47.779 13.3356C47.8142 13.3311 48.5231 13.2561 48.9877 13.791C49.2649 14.1101 49.3797 14.554 49.2138 14.9878C49.1797 15.4681 49.0866 16.0825 48.8514 16.7649C48.5492 17.6404 48.1243 18.3058 47.7801 18.7566C46.2896 17.1339 44.799 15.5101 43.3074 13.8875L43.3085 13.8864Z" fill="#2A273A"/>
<path d="M25.2749 21.3821C21.5532 19.0667 13.1006 24.1359 17.2695 26.2954C25.9692 30.8026 34.9925 37.6635 39.3173 45.2452C40.2912 46.9546 41.5827 49.723 40.4236 43.3976C38.8966 35.0421 27.9168 23.0268 25.2749 21.3821Z" fill="white"/>
<path d="M42.933 28.3432C45.4897 24.7862 40.9912 16.013 38.5582 20.0318C33.4831 28.4108 26.0367 36.9605 18.1873 40.7734C16.4191 41.6325 13.5683 42.7357 19.9555 42.0002C28.3963 41.0264 41.1148 30.8704 42.933 28.3432Z" fill="white"/>
</svg>
