<svg width="24" height="25" viewBox="0 0 24 25" fill="none" xmlns="http://www.w3.org/2000/svg">
<path fill-rule="evenodd" clip-rule="evenodd" d="M12.7066 19.8734L12 20.58L11.2929 19.8729L5.29289 13.8729C4.90237 13.4824 4.90237 12.8492 5.29289 12.4587C5.68342 12.0681 6.31658 12.0681 6.70711 12.4587L11 16.7516L11 5.16577C11 4.61349 11.4477 4.16577 12 4.16577C12.5523 4.16577 13 4.61349 13 5.16577L13 16.7516L17.2929 12.4587C17.6834 12.0681 18.3166 12.0681 18.7071 12.4587C19.0976 12.8492 19.0976 13.4824 18.7071 13.8729L12.7077 19.8723L12.7071 19.8729L12.7066 19.8734Z" fill="#07080D"/>
</svg>
