<svg width="336" height="112" viewBox="0 0 336 112" fill="none" xmlns="http://www.w3.org/2000/svg">
<g clip-path="url(#clip0_3132_26)">
<path d="M63.2339 10.4539L58.8049 9.73139C33.1915 5.55285 9.0387 22.9191 4.85812 48.52L3.78362 55.1C-0.396965 80.7009 16.9778 104.842 42.5911 109.02L47.0202 109.743C72.6336 113.922 96.7864 96.5553 100.967 70.9544L102.041 64.3744C106.222 38.7735 88.8473 14.6325 63.2339 10.4539Z" fill="#FAC45C"/>
<path d="M45.5692 109.708C42.3172 109.17 38.9845 108.733 35.7986 107.857C11.6254 101.442 -4.0814 78.3956 0.932351 53.5298C1.30673 51.495 1.68111 49.4454 2.09464 47.4179C5.68673 29.0651 20.7402 13.9847 38.7594 9.5017C41.6125 8.80711 44.5317 8.32041 47.4631 8.11742C51.6205 7.78969 55.8953 8.14432 60.0257 8.78266C64.643 9.33539 69.2457 10.3528 73.5572 12.1235C92.56 19.7444 105.037 40.0758 103.175 60.4782C102.974 63.4033 102.159 67.5268 101.685 70.4543C100.843 75.5366 99.2671 80.5381 96.8691 85.0994C87.2355 103.611 65.8567 113.145 45.5692 109.708ZM45.6328 109.322C69.9039 113.36 92.6383 95.8435 97.2019 72.1541C97.3217 71.4717 97.5175 70.4665 97.6178 69.7915C97.8845 68.1064 98.5256 64.1272 98.7361 62.4983C101.981 38.4714 85.7796 16.2813 62.0835 11.5023C60.7133 11.2064 58.6162 10.8395 57.2215 10.5632C33.2734 5.88446 10.0153 21.6301 5.44204 45.569C5.2732 46.2342 5.14107 47.2541 5.02117 47.9364C4.96734 48.2348 4.87925 48.8414 4.8401 49.1422C4.51955 51.5757 4.13049 54.0312 3.8393 56.4672C1.51961 74.8077 10.6858 94.2709 26.9138 103.469C29.7547 105.098 32.7914 106.402 35.9406 107.348C39.0971 108.322 42.3784 108.779 45.6304 109.324L45.6328 109.322Z" fill="#2A273A"/>
<path d="M10.2697 30.5008C9.57481 27.5952 8.96308 24.2788 8.58381 20.6102C8.20453 16.944 8.12868 13.5909 8.21677 10.634C8.19964 10.4775 7.93537 7.32986 10.6931 5.48088C12.3398 4.37541 14.5837 4.0379 16.7345 4.92325C19.1399 5.24854 22.2083 5.88443 25.5924 7.16844C29.9382 8.81931 33.2097 10.9324 35.4144 12.6078" fill="#FAC45C"/>
<path d="M10.0814 30.5448C7.91099 27.0058 6.74625 22.3785 6.67529 18.2574C6.68753 16.543 7.02031 14.8261 7.29192 13.1385C7.42405 12.4292 7.54885 11.089 7.60513 10.6952C7.59044 10.3675 7.60757 10.1082 7.63204 9.82208C7.7813 7.80191 8.6989 5.81841 10.2772 4.51239C12.1638 2.85663 15.0462 2.35036 17.4247 3.25039L16.9793 3.13055C22.4433 3.41181 27.5305 5.21432 31.8199 8.64079C33.2073 9.75605 34.4871 11.0034 35.5344 12.4512L35.297 12.7619C33.6331 12.1529 32.0671 11.5194 30.4986 10.9471C27.4179 9.7805 24.3299 8.86091 21.1954 7.9462C19.6489 7.48641 18.0878 7.04128 16.4899 6.71111L16.1351 6.63774L16.0421 6.59127C14.2755 5.69857 11.8921 5.61053 10.26 6.92389C9.18095 7.78479 8.6622 9.2987 8.82614 10.6512C8.85795 13.1507 9.68012 15.5745 10.0594 18.0202C10.4044 20.461 10.4778 22.8921 10.5757 25.3696C10.6051 27.0303 10.632 28.7007 10.4558 30.4543L10.0741 30.5448H10.0814Z" fill="#2A273A"/>
<path d="M16.1647 25.0028C15.8466 23.6723 15.5652 22.1535 15.3914 20.4733C15.2177 18.7955 15.1834 17.2596 15.2226 15.9046C15.2153 15.8337 15.0929 14.3932 16.3555 13.5445C17.1092 13.0382 18.1369 12.8841 19.1206 13.2877C20.2217 13.4369 21.6262 13.7279 23.1776 14.3173C25.1669 15.0731 26.6644 16.0416 27.675 16.8071C23.8382 19.5365 19.999 22.2684 16.1622 24.9979L16.1647 25.0028Z" fill="#2A273A"/>
<path d="M74.5581 15.9804C77.6021 15.232 81.0914 14.5472 84.9771 14.0679C88.858 13.5885 92.428 13.4051 95.5895 13.388C95.7558 13.3684 99.091 13.0138 101.279 15.528C102.585 17.0321 103.121 19.1159 102.345 21.1581C102.186 23.4179 101.746 26.3088 100.637 29.5176C99.2158 33.6362 97.2142 36.7692 95.5992 38.8847" fill="#FAC45C"/>
<path d="M74.5117 15.7921C78.0769 13.5592 83.3011 12.1358 87.4853 12.1651C90.1794 12.2483 92.9126 12.8891 95.5847 12.801C97.5251 12.6029 100.378 13.0798 102.096 14.5986C104.203 16.2837 104.998 19.2382 104.107 21.8307L104.225 21.2926C104.293 26.4017 102.524 31.4987 99.3505 35.495C98.3032 36.8157 97.1189 38.019 95.7511 39.0071L95.4403 38.7698C96.0178 37.207 96.5977 35.7249 97.1164 34.2477C98.6384 29.9138 99.7102 25.5408 100.459 21.0285L100.52 20.6078C101.249 19.2675 101.049 17.5653 100.268 16.2642C99.4092 14.7038 97.3954 13.7891 95.6091 13.9799C92.9567 13.9187 90.3556 14.8187 87.7887 15.4033C85.217 15.9462 82.6282 16.0636 79.9977 16.225C78.2384 16.2984 76.4644 16.3473 74.6047 16.1761L74.5117 15.797V15.7921Z" fill="#2A273A"/>
<path d="M80.8784 21.3048C82.2732 20.9624 83.871 20.6494 85.6475 20.4293C87.424 20.2092 89.0585 20.126 90.5071 20.1187C90.5829 20.1089 92.1098 19.9475 93.1106 21.0994C93.7077 21.7866 93.9548 22.7429 93.5976 23.6772C93.5242 24.7117 93.3235 26.0349 92.817 27.5048C92.1661 29.3904 91.251 30.8236 90.5095 31.7946C87.2992 28.2996 84.0888 24.8022 80.876 21.3073L80.8784 21.3048Z" fill="#2A273A"/>
<path d="M84.8082 36.4488L82.0089 35.605C81.363 35.4362 80.6093 35.2675 79.9633 35.1843C79.3173 35.1012 78.6689 35.1012 78.0229 35.2675C77.2692 35.4362 76.0825 35.9401 74.3623 36.6151C72.6397 37.3733 68.6536 39.6478 62.2989 43.4411C59.069 45.4638 56.0519 46.9801 53.5756 48.0758C54.114 46.9801 55.7314 44.6224 58.3153 40.8291C59.9303 38.6377 61.4376 36.3632 62.9449 34.0862C64.8829 30.9679 65.962 29.1972 66.3926 28.9453L67.1463 28.1871L68.1153 26.7539C68.3306 26.5851 68.3306 26.502 68.223 26.5851C69.7303 23.6356 69.1944 21.6129 66.3926 20.2653C65.2059 19.7591 63.8087 19.3384 62.0836 19.1697C60.361 19.0009 58.6383 18.9177 57.0209 19.0009C55.4059 19.0009 53.8962 19.0841 52.499 19.2528C51.0993 19.4216 50.1304 19.5903 49.4819 19.8422C48.8359 20.0941 48.19 20.2629 47.6516 20.5148C47.0056 20.6836 46.4649 20.9355 45.9265 21.273C45.3882 21.6105 44.7422 22.4518 43.9886 23.6331C41.5123 22.9581 39.5743 23.885 38.1722 26.4971C36.5573 29.026 35.0475 32.1443 33.8656 35.7664C33.3273 37.3684 32.7865 38.9703 32.3559 40.6554C31.8175 42.3405 31.0639 44.6151 29.9872 47.6502C28.9106 50.5998 27.511 54.3075 26.0036 58.8566C24.4939 63.4081 22.7713 68.6322 20.618 74.6145C17.4932 83.1256 16.3089 88.2641 17.0626 90.0348C18.1417 91.8887 20.4026 92.9844 23.7402 93.2363C26.7573 93.4882 29.3413 92.9844 31.6047 91.8031C33.0043 90.2011 34.2963 88.3473 35.2653 86.2415C36.3444 84.2189 37.421 82.2819 38.39 80.3424L40.3304 76.5515C40.7611 76.7203 41.0841 76.7203 41.1917 76.7203C42.9144 76.889 46.0391 78.2366 50.3481 80.8487C52.1784 82.0275 54.1164 83.2088 55.9467 84.4708C57.777 85.7352 59.6073 86.9141 61.2247 88.0098C65.1007 90.4531 67.577 91.5487 68.8714 91.38C71.563 91.0425 73.3933 90.6218 74.5801 90.1987C75.6567 89.778 76.3027 89.103 76.4104 88.3448C76.518 87.5035 76.195 86.3222 75.4389 84.8058C74.6877 83.3727 73.7163 81.015 72.4243 77.8942C71.24 74.7783 69.1944 71.8263 66.3926 68.8768C62.8373 65.2522 59.2819 63.2296 55.4059 62.8921C58.0976 62.3858 60.684 61.7964 63.1603 61.0382C71.4529 58.7637 78.8842 54.2977 85.4567 47.6405C86.964 46.2073 87.61 44.1846 87.61 41.4038C87.3946 38.5399 86.5309 36.9379 84.8107 36.4317L84.8082 36.4488Z" fill="#2A273A"/>
<path d="M89.807 58.5411C89.8339 56.2348 89.6479 54.3564 89.2589 52.8939C88.86 51.4338 88.8747 50.2036 89.3005 49.2228C89.7189 48.2421 90.3992 47.55 91.3265 47.1586C92.2539 46.7673 93.3526 46.6377 94.6152 46.782C95.8778 46.9189 97.1282 47.3029 98.3688 47.9217C101.347 49.2669 103.427 51.1794 104.608 53.6496C104.89 54.8847 104.794 56.4206 104.312 58.2451C103.833 60.0697 103.282 61.9578 102.666 63.8923C102.049 65.8343 101.457 67.7126 100.894 69.5396C100.331 71.3714 100.111 72.9024 100.221 74.1351C101.682 73.2375 102.959 71.8924 104.058 70.0874C105.157 68.2898 106.165 66.3699 107.099 64.3179C108.027 62.2659 108.898 60.2286 109.708 58.206C110.525 56.181 111.313 54.5765 112.076 53.3977C112.833 52.2189 113.435 51.2773 113.89 50.5778C114.335 49.871 114.788 49.24 115.235 48.6774C115.97 47.7236 116.924 46.7967 118.106 45.8991C118.441 45.6178 119.471 45.6594 121.189 46.0214C122.897 46.3858 124.167 46.6377 124.984 46.782C125.794 46.9189 126.342 46.8774 126.623 46.6524L127.803 45.8086C129.381 45.026 131.236 45.0529 133.37 45.8966C135.45 46.7942 136.548 48.1663 136.658 50.0275C136.605 50.0813 136.575 50.1913 136.575 50.3625L136.83 50.4457L136.24 50.9544C135.848 51.6881 135.552 52.1748 135.354 52.4292C135.156 52.6835 134.75 53.0602 134.133 53.5689C130.311 57.6704 125.924 65.2864 120.976 76.4145C119.74 79.166 118.615 81.6435 117.599 83.83C119.124 84.7838 120.269 86.0263 121.059 87.5426C121.85 89.059 121.85 90.7196 121.059 92.5172C116.393 96.2299 113.777 99.7077 113.214 102.973C112.933 104.998 112.583 106.424 112.165 107.267C111.739 108.111 111.081 108.928 110.18 109.716C107.146 111.958 103.571 111.396 99.465 108.028C96.5409 105.105 96.4039 101.449 99.0466 97.0639C99.7195 95.885 100.365 94.6499 100.989 93.3586C101.887 91.4436 103.324 88.6041 105.286 84.845C100.454 87.6502 96.0124 87.5964 91.9627 84.6738C89.0925 82.4848 88.0844 77.5102 88.9212 69.7523C89.484 64.5869 89.7801 60.8474 89.8143 58.5411H89.807Z" fill="#2A273A"/>
<path d="M145.761 47.3298C147.339 45.8061 149.096 44.9208 151.032 44.6689C152.975 44.4219 154.69 44.6273 156.18 45.3072C157.67 45.9798 158.769 47.0633 159.469 48.5527C160.176 50.0422 160.073 51.7419 159.173 53.6496C157.264 56.4622 155.74 59.4949 154.621 62.7526C153.496 66.0104 152.453 69.3048 151.499 72.6187C156.674 69.361 160.998 64.4965 164.485 58.0324C165.5 56.1247 166.599 54.1828 167.778 52.214L169.041 49.8538L171.574 45.8061C171.909 44.7422 172.501 44.0501 173.345 43.7419C174.182 43.4338 175.102 43.2821 176.083 43.2821C177.065 43.2821 178.068 43.2968 179.076 43.3237C180.091 43.3506 181.019 43.084 181.863 42.5215C182.707 41.959 183.703 41.7536 184.856 41.8905C186.008 42.0348 187.046 42.4115 187.978 43.0302C188.905 43.6466 189.605 44.395 190.085 45.2656C190.559 46.1363 190.599 46.9874 190.207 47.8312C187.846 52.8939 184.613 62.3075 180.507 76.077C179.553 79.1635 178.655 81.7511 177.811 83.83C176.404 85.5738 174.632 86.7526 172.499 87.369C170.358 87.9853 168.354 88.1712 166.464 87.9168C164.583 87.6625 163.08 87.0192 161.955 85.9822C160.829 84.9403 160.575 83.6368 161.194 82.0568C159.623 83.3531 157.988 84.5344 156.3 85.5958C154.619 86.667 152.581 87.3665 150.19 87.7089C147.794 88.044 145.509 87.9413 143.312 87.413C141.122 86.8774 139.247 85.8477 137.703 84.3314C136.159 82.815 135.327 80.7924 135.212 78.2586C134.877 69.3806 138.391 59.0694 145.756 47.3249L145.761 47.3298Z" fill="#2A273A"/>
<path d="M206.232 49.8539C209.046 45.6423 212.951 43.111 217.955 42.2672C219.59 41.9859 221.601 41.7927 223.989 41.6778C226.378 41.5677 228.431 42.1033 230.146 43.2822C231.861 44.461 233.138 45.9774 233.983 47.8312C235.443 51.1525 235.671 55.2271 234.655 60.0575C234.093 62.6989 233.42 65.6068 232.637 68.7838C231.846 71.9609 230.667 75.0963 229.089 78.1828C227.518 81.2767 225.465 84.1651 222.932 86.8676C220.407 89.5628 217.118 91.6979 213.069 93.2754C210.646 94.2293 208.525 94.579 206.699 94.3247C204.874 94.0703 203.509 93.6937 202.608 93.185C201.71 92.6836 201.091 91.9499 200.756 90.996C199.63 94.1999 198.573 97.4454 197.592 100.73C196.603 104.017 195.299 107.153 193.665 110.129C192.546 110.855 191.166 111.406 189.532 111.775C187.904 112.139 186.299 112.056 184.726 111.521C183.155 110.985 182.015 110.031 181.308 108.652C180.608 107.272 180.258 105.771 180.258 104.144C180.258 101.948 180.794 99.2797 181.858 96.1321C183.436 91.468 184.714 87.8728 185.695 85.3415C186.683 82.8175 187.315 81.1691 187.596 80.4158C187.878 79.6551 188.159 78.8505 188.44 78.0067C189.676 74.749 190.589 72.0929 191.178 70.041C191.768 67.989 192.319 66.206 192.825 64.6897V64.6065C193.381 62.129 194.266 59.5023 195.483 56.7239C196.691 53.9382 197.521 52.236 197.966 51.6197C198.921 50.6658 199.909 50.0764 200.917 49.849C201.933 49.6289 203.085 49.4846 204.377 49.4307H204.632L206.232 49.849V49.8539ZM212.643 63.934C211.97 65.1128 210.844 66.2109 209.273 67.2259L208.513 68.9966C207.95 70.4567 207.414 71.9462 206.912 73.4625C206.403 74.9789 205.84 76.4684 205.224 77.9285C205.787 78.491 206.205 79.0266 206.486 79.5329C209.638 76.7741 212.506 73.1519 215.095 68.6518C216.103 66.8004 216.764 64.9465 217.072 63.0877C217.38 61.2363 217.456 60.055 217.285 59.5488C217.121 59.0474 216.852 58.793 216.482 58.793C216.113 58.793 215.755 58.8884 215.391 59.089C215.021 59.2871 214.74 59.4803 214.547 59.6784C214.348 59.8765 214.361 59.8838 214.588 59.72C213.972 60.4463 213.516 61.0847 213.235 61.613C212.954 62.1486 212.76 62.9239 212.645 63.9315L212.643 63.934Z" fill="#2A273A"/>
<path d="M274.137 48.1663L274.472 48.2543C274.582 48.2543 274.643 48.2812 274.643 48.3375C276.104 47.775 277.313 48.2005 278.267 49.5995C278.884 50.5607 279.366 52.0208 279.701 53.9823C279.811 56.6848 279.53 60.417 278.857 65.1984C277.56 74.8639 276.86 80.6212 276.75 82.48C276.86 84.4414 275.651 85.7939 273.119 86.5203C270.929 87.2002 268.734 87.1709 266.544 86.4372C264.236 85.6472 263.284 84.4414 263.674 82.815C263.228 83.6588 262.776 84.2629 262.328 84.6273C261.875 84.9917 260.989 85.498 259.67 86.1437C258.347 86.7893 256.472 87.3225 254.055 87.7481C251.64 88.1663 249.222 88.2763 246.807 88.0831C244.384 87.885 242.18 87.2932 240.183 86.3124C238.186 85.3243 236.855 83.7958 236.175 81.7169C234.885 77.6692 235.057 72.5307 236.684 66.2867C237.81 62.1852 239.836 58.5607 242.76 55.413C246.129 51.8178 249.954 48.8413 254.228 46.4812C257.434 44.7374 260.522 43.6955 263.51 43.3604C264.518 43.2504 265.404 43.2773 266.167 43.4436C266.923 43.6148 267.738 43.7786 268.611 43.9523C269.483 44.1235 270.315 44.3705 271.102 44.7129C273.121 45.5567 274.137 46.7086 274.137 48.1638V48.1663ZM258.535 70.513C258.926 69.723 259.25 68.7423 259.504 67.5634C259.758 66.3846 260.108 65.0859 260.561 63.6796C256.002 65.5383 252.516 67.8153 250.1 70.513C247.458 73.4894 247.622 75.5414 250.609 76.6664C253.191 77.339 255.077 76.9208 256.259 75.3971C256.768 74.7245 257.214 73.8807 257.605 72.8731C258.004 71.8581 258.476 70.8211 259.039 69.7524C258.875 70.0336 258.704 70.288 258.537 70.513H258.535Z" fill="#2A273A"/>
<path d="M297.833 49.8538C299.913 48.4549 302.308 48.0293 305.005 48.5918C307.701 49.2082 309.218 50.3895 309.556 52.1308C310.009 51.0596 310.346 49.9981 310.571 48.9269C313.104 37.5176 315.884 28.8059 318.918 22.7942C319.879 20.9355 320.861 19.6441 321.876 18.9177C324.519 17.2302 327.299 17.0027 330.223 18.2378C331.402 18.7465 332.329 19.4313 333.01 20.302C333.683 21.1727 333.949 21.9749 333.805 22.7037C333.668 23.4375 333.722 24.0269 333.976 24.4818C334.231 24.9269 334.524 25.3794 334.862 25.8269C335.76 26.8982 336.125 27.8227 335.961 28.6126C334.835 33.0516 333.333 37.6472 331.444 42.3944C329.562 47.1415 327.634 51.8765 325.671 56.5967C323.702 61.317 321.918 65.9688 320.31 70.5521C318.71 75.1354 317.653 79.4766 317.146 83.5732C317.146 84.6444 316.701 85.6105 315.8 86.4812C314.902 87.3519 313.774 88.0465 312.424 88.5454C309.218 89.6704 306.24 89.443 303.488 87.8728V87.3641C302.925 87.2002 302.514 87.0828 302.266 87.029C302.012 86.9752 301.826 86.8652 301.718 86.694C301.547 86.4127 301.41 85.542 301.293 84.0795C300.167 85.8233 299.076 86.8921 298.004 87.2834C296.932 87.6747 295.841 87.8728 294.715 87.8728C289.259 87.8728 285.38 86.8921 283.075 84.9233C281.049 83.2357 280.097 80.4842 280.205 76.664C280.322 72.3889 281.893 67.6148 284.928 62.332C288.414 56.3155 292.719 52.1577 297.833 49.8514V49.8538ZM297.749 77.5102C299.548 78.1266 300.791 77.7034 301.464 76.2409C301.855 75.5145 302.232 74.5607 302.604 73.3794C302.969 72.2005 303.434 70.8211 303.992 69.2436L304.334 67.5634C302.981 66.7734 301.76 66.6658 300.661 67.2284C299.563 67.7909 298.677 68.6542 298.004 69.8355C297.331 71.0144 296.932 72.3399 296.825 73.8C296.707 75.2601 297.023 76.4952 297.752 77.5127L297.749 77.5102Z" fill="#2A273A"/>
</g>
<defs>
<clipPath id="clip0_3132_26">
<rect width="336" height="112" fill="white"/>
</clipPath>
</defs>
</svg>
