<svg width="312" height="104" viewBox="0 0 312 104" fill="none" xmlns="http://www.w3.org/2000/svg">
<g clip-path="url(#clip0_3299_4180)">
<path d="M58.7167 9.70718L54.604 9.03624C30.8202 5.15617 8.39259 21.282 4.51062 45.0542L3.51287 51.1642C-0.369099 74.9365 15.7646 97.3531 39.5484 101.233L43.6611 101.904C67.445 105.784 89.8726 89.6584 93.7545 65.8862L94.7523 59.7762C98.6343 36.0039 82.5006 13.5873 58.7167 9.70718Z" fill="#FAC45C"/>
<path d="M42.3142 101.872C39.2946 101.372 36.1999 100.966 33.2416 100.153C10.795 94.1959 -3.78991 72.7959 0.86572 49.7062C1.21336 47.8167 1.561 45.9136 1.94499 44.0309C5.2805 26.989 19.2588 12.9858 35.9909 8.82297C38.6402 8.17799 41.3508 7.72605 44.0729 7.53756C47.9333 7.23324 51.9027 7.56254 55.7381 8.15528C60.0256 8.66854 64.2995 9.61329 68.3031 11.2575C85.9486 18.3341 97.5342 37.2132 95.8051 56.1582C95.6188 58.8744 94.8622 62.7034 94.4214 65.4218C93.6398 70.141 92.1765 74.7853 89.9498 79.0208C81.0044 96.2103 61.1526 105.063 42.3142 101.872ZM42.3733 101.513C64.9108 105.263 86.0213 88.9975 90.2588 67.0002C90.3702 66.3666 90.5519 65.4332 90.6451 64.8064C90.8928 63.2416 91.4881 59.5466 91.6835 58.0341C94.6963 35.7234 79.6524 15.1183 57.649 10.6807C56.3766 10.4059 54.4293 10.0652 53.1342 9.8086C30.8967 5.4641 9.29993 20.0851 5.05329 42.314C4.89651 42.9317 4.77381 43.8787 4.66248 44.5124C4.61249 44.7894 4.53069 45.3526 4.49434 45.632C4.19669 47.8917 3.83542 50.1718 3.56503 52.4337C1.41104 69.4643 9.9225 87.5372 24.9914 96.0786C27.6293 97.5911 30.4491 98.8016 33.3733 99.6805C36.3044 100.584 39.3514 101.009 42.371 101.515L42.3733 101.513Z" fill="#2A273A"/>
<path d="M9.53626 28.3221C8.89097 25.6241 8.32293 22.5446 7.97075 19.138C7.61856 15.7337 7.54813 12.6201 7.62993 9.87446C7.61402 9.72911 7.36863 6.80628 9.92934 5.08938C11.4585 4.06287 13.5421 3.74946 15.5393 4.57158C17.7728 4.87363 20.6221 5.4641 23.7644 6.65639C27.7998 8.18935 30.8376 10.1515 32.8848 11.7072" fill="#FAC45C"/>
<path d="M9.36107 28.363C7.34568 25.0768 6.26413 20.78 6.19824 16.9533C6.2096 15.3613 6.51861 13.767 6.77082 12.2C6.89352 11.5414 7.0094 10.2968 7.06166 9.93121C7.04803 9.62689 7.06393 9.38616 7.08665 9.12044C7.22525 7.24457 8.07731 5.40275 9.54284 4.19002C11.2947 2.65252 13.9713 2.18242 16.1798 3.01816L15.7663 2.90688C20.84 3.16805 25.5638 4.84181 29.5468 8.02353C30.8351 9.05913 32.0235 10.2174 32.996 11.5618L32.7756 11.8502C31.2305 11.2847 29.7763 10.6965 28.3199 10.1651C25.4592 9.08184 22.5918 8.22793 19.6812 7.37856C18.2452 6.9516 16.7955 6.53827 15.3118 6.23168L14.9824 6.16355L14.896 6.1204C13.2555 5.29147 11.0425 5.20971 9.52694 6.42926C8.52492 7.22867 8.04323 8.63444 8.19546 9.89033C8.225 12.2113 8.98844 14.4619 9.34062 16.733C9.661 18.9995 9.72916 21.2569 9.82005 23.5574C9.84731 25.0995 9.8723 26.6506 9.70871 28.2789L9.35425 28.363H9.36107Z" fill="#2A273A"/>
<path d="M15.0094 23.2168C14.714 21.9814 14.4527 20.571 14.2914 19.0108C14.1301 17.4529 14.0983 16.0267 14.1346 14.7685C14.1278 14.7027 14.0142 13.365 15.1866 12.577C15.8865 12.1069 16.8408 11.9638 17.7542 12.3385C18.7766 12.4771 20.0809 12.7473 21.5214 13.2946C23.3687 13.9964 24.7592 14.8957 25.6976 15.6066C22.1349 18.141 18.5699 20.6778 15.0071 23.2123L15.0094 23.2168Z" fill="#2A273A"/>
<path d="M69.2319 14.8389C72.0585 14.144 75.2986 13.5081 78.9067 13.063C82.5104 12.6179 85.8254 12.4475 88.761 12.4316C88.9155 12.4135 92.0125 12.0842 94.0438 14.4188C95.2571 15.8155 95.7547 17.7504 95.0344 19.6467C94.8868 21.7452 94.4778 24.4295 93.4485 27.4091C92.1284 31.2336 90.2697 34.1428 88.7701 36.1072" fill="#FAC45C"/>
<path d="M69.189 14.6641C72.4995 12.5906 77.3505 11.2689 81.2359 11.2961C83.7375 11.3733 86.2755 11.9684 88.7567 11.8866C90.5585 11.7026 93.2078 12.1455 94.8029 13.5558C96.7592 15.1206 97.4977 17.864 96.6706 20.2713L96.7797 19.7716C96.8433 24.5159 95.2005 29.2487 92.2535 32.9596C91.2811 34.1859 90.1813 35.3033 88.9112 36.2208L88.6226 36.0005C89.1589 34.5493 89.6974 33.1731 90.1791 31.8013C91.5923 27.7771 92.5875 23.7164 93.2828 19.5264L93.3396 19.1358C94.0167 17.8912 93.8304 16.3106 93.1056 15.1024C92.3081 13.6535 90.4381 12.8041 88.7794 12.9812C86.3164 12.9245 83.9011 13.7602 81.5176 14.303C79.1296 14.8072 76.7257 14.9162 74.2831 15.0661C72.6494 15.1342 71.0021 15.1796 69.2753 15.0206L69.189 14.6686V14.6641Z" fill="#2A273A"/>
<path d="M75.1009 19.783C76.396 19.4651 77.8797 19.1744 79.5293 18.97C81.1789 18.7656 82.6967 18.6884 84.0418 18.6816C84.1122 18.6725 85.5301 18.5226 86.4594 19.5923C87.0138 20.2304 87.2433 21.1184 86.9115 21.9859C86.8434 22.9466 86.6571 24.1752 86.1867 25.5401C85.5823 27.2911 84.7325 28.6219 84.0441 29.5235C81.063 26.2782 78.082 23.0306 75.0986 19.7853L75.1009 19.783Z" fill="#2A273A"/>
<path d="M78.7504 33.8453L76.1511 33.0618C75.5512 32.9051 74.8514 32.7484 74.2516 32.6712C73.6517 32.594 73.0496 32.594 72.4498 32.7484C71.7499 32.9051 70.648 33.3729 69.0506 33.9997C67.451 34.7038 63.7497 36.8158 57.8489 40.3382C54.8497 42.2164 52.0482 43.6244 49.7487 44.6418C50.2486 43.6244 51.7505 41.4351 54.1499 37.9127C55.6495 35.8779 57.0491 33.7658 58.4488 31.6515C60.2483 28.7559 61.2503 27.1117 61.6502 26.8778L62.3501 26.1737L63.2498 24.8429C63.4498 24.6862 63.4498 24.609 63.3498 24.6862C64.7495 21.9473 64.2519 20.0692 61.6502 18.8178C60.5483 18.3477 59.2509 17.9571 57.649 17.8004C56.0494 17.6437 54.4498 17.5665 52.9479 17.6437C51.4483 17.6437 50.0464 17.7209 48.749 17.8776C47.4493 18.0343 46.5496 18.191 45.9474 18.4249C45.3476 18.6589 44.7477 18.8156 44.2479 19.0495C43.648 19.2062 43.1459 19.4401 42.646 19.7535C42.1461 20.0669 41.5463 20.8481 40.8465 21.9451C38.5471 21.3183 36.7475 22.179 35.4456 24.6044C33.9459 26.9527 32.544 29.8483 31.4466 33.2117C30.9467 34.6992 30.4446 36.1868 30.0447 37.7515C29.5448 39.3162 28.845 41.4283 27.8452 44.2467C26.8455 46.9855 25.5458 50.4284 24.1462 54.6526C22.7443 58.879 21.1447 63.7299 19.1452 69.2849C16.2436 77.1881 15.1439 81.9596 15.8437 83.6038C16.8458 85.3252 18.9452 86.3427 22.0444 86.5766C24.846 86.8105 27.2454 86.3427 29.3471 85.2458C30.6468 83.7582 31.8465 82.0368 32.7463 80.0814C33.7483 78.2033 34.748 76.4046 35.6478 74.6037L37.4496 71.0836C37.8495 71.2403 38.1494 71.2403 38.2494 71.2403C39.849 71.397 42.7505 72.6483 46.7518 75.0738C48.4513 76.1684 50.2509 77.2653 51.9505 78.4372C53.65 79.6113 55.3496 80.7059 56.8515 81.7234C60.4506 83.9921 62.75 85.0096 63.9519 84.8529C66.4513 84.5395 68.1509 84.1488 69.2529 83.756C70.2526 83.3653 70.8524 82.7385 70.9524 82.0345C71.0524 81.2533 70.7525 80.1564 70.0504 78.7483C69.3528 77.4175 68.4508 75.2282 67.2511 72.3304C66.1514 69.437 64.2519 66.6959 61.6502 63.957C58.3488 60.5913 55.0474 58.7132 51.4483 58.3998C53.9477 57.9297 56.3493 57.3824 58.6487 56.6783C66.349 54.5663 73.2496 50.4194 79.3526 44.2376C80.7522 42.9068 81.352 41.0286 81.352 38.4464C81.1521 35.787 80.35 34.2995 78.7527 33.8294L78.7504 33.8453Z" fill="#2A273A"/>
<path d="M83.3923 54.3596C83.4173 52.218 83.2447 50.4739 82.8834 49.1158C82.513 47.76 82.5267 46.6177 82.922 45.707C83.3106 44.7963 83.9422 44.1536 84.8034 43.7902C85.6645 43.4269 86.6847 43.3065 87.8571 43.4405C89.0295 43.5677 90.1906 43.9242 91.3426 44.4988C94.1078 45.7479 96.0391 47.5238 97.1366 49.8176C97.3979 50.9644 97.3093 52.3906 96.8616 54.0848C96.4163 55.779 95.9051 57.5323 95.3325 59.3287C94.7599 61.1319 94.21 62.876 93.6874 64.5725C93.1649 66.2735 92.9604 67.6952 93.0626 68.8398C94.4191 68.0063 95.6051 66.7572 96.6253 65.0812C97.6455 63.412 98.5817 61.6292 99.4496 59.7238C100.311 57.8184 101.12 55.9267 101.872 54.0485C102.631 52.1681 103.362 50.6783 104.071 49.5836C104.773 48.489 105.332 47.6147 105.755 46.9651C106.168 46.3088 106.589 45.7229 107.005 45.2005C107.686 44.3148 108.572 43.4541 109.67 42.6206C109.981 42.3595 110.938 42.3981 112.533 42.7342C114.119 43.0726 115.298 43.3065 116.057 43.4405C116.809 43.5677 117.318 43.529 117.579 43.3201L118.674 42.5366C120.14 41.8099 121.862 41.8349 123.843 42.6184C125.775 43.4518 126.795 44.7259 126.897 46.4541C126.847 46.5041 126.82 46.6063 126.82 46.7653L127.056 46.8425L126.509 47.3149C126.145 47.9962 125.87 48.4481 125.686 48.6843C125.502 48.9205 125.125 49.2702 124.552 49.7426C121.003 53.5511 116.929 60.6232 112.335 70.9564C111.188 73.5113 110.142 75.8119 109.199 77.8422C110.615 78.7279 111.678 79.8816 112.412 81.2896C113.146 82.6977 113.146 84.2397 112.412 85.9089C108.079 89.3564 105.65 92.5858 105.128 95.6176C104.866 97.498 104.542 98.8221 104.153 99.6056C103.758 100.389 103.146 101.148 102.31 101.879C99.4928 103.961 96.1732 103.439 92.3605 100.312C89.6453 97.598 89.5181 94.2028 91.972 90.1308C92.5968 89.0361 93.1967 87.8893 93.7761 86.6902C94.6099 84.9119 95.9437 82.2753 97.766 78.7847C93.2785 81.3896 89.1545 81.3396 85.3941 78.6257C82.7289 76.5931 81.7928 71.9738 82.5698 64.7701C83.0924 59.9737 83.3674 56.5012 83.3992 54.3596H83.3923Z" fill="#2A273A"/>
<path d="M135.35 43.9492C136.815 42.5343 138.447 41.7122 140.244 41.4783C142.048 41.2489 143.641 41.4397 145.025 42.071C146.408 42.6956 147.428 43.7016 148.078 45.0847C148.735 46.4678 148.64 48.0461 147.803 49.8176C146.031 52.4293 144.616 55.2453 143.577 58.2704C142.532 61.2954 141.564 64.3545 140.678 67.4317C145.484 64.4067 149.498 59.8896 152.736 53.8873C153.679 52.1158 154.699 50.3126 155.795 48.4845L156.967 46.2929L159.319 42.5343C159.63 41.5464 160.18 40.9037 160.964 40.6176C161.741 40.3314 162.595 40.1906 163.506 40.1906C164.417 40.1906 165.349 40.2042 166.285 40.2292C167.228 40.2542 168.089 40.0067 168.873 39.4843C169.657 38.962 170.582 38.7712 171.652 38.8984C172.722 39.0324 173.685 39.3821 174.551 39.9567C175.412 40.529 176.062 41.2239 176.507 42.0324C176.948 42.8409 176.985 43.6312 176.621 44.4148C174.428 49.1158 171.427 57.857 167.614 70.643C166.728 73.509 165.894 75.9118 165.11 77.8422C163.804 79.4614 162.159 80.5561 160.178 81.1284C158.189 81.7007 156.328 81.8733 154.574 81.6371C152.827 81.4009 151.432 80.8036 150.387 79.8407C149.342 78.8732 149.105 77.6628 149.68 76.1957C148.221 77.3993 146.704 78.4962 145.136 79.4819C143.575 80.4766 141.682 81.1261 139.462 81.4441C137.238 81.7552 135.116 81.6598 133.075 81.1693C131.042 80.6719 129.301 79.7158 127.868 78.3077C126.434 76.8997 125.661 75.0216 125.555 72.6688C125.243 64.4249 128.506 54.8502 135.345 43.9446L135.35 43.9492Z" fill="#2A273A"/>
<path d="M191.501 46.2929C194.114 42.3822 197.74 40.0316 202.387 39.2481C203.905 38.987 205.773 38.8075 207.99 38.7008C210.208 38.5986 212.114 39.096 213.707 40.1906C215.3 41.2853 216.486 42.6933 217.27 44.4147C218.626 47.4988 218.837 51.2824 217.894 55.7677C217.372 58.2204 216.747 60.9207 216.02 63.8707C215.286 66.8208 214.191 69.7323 212.725 72.5984C211.267 75.4712 209.36 78.1533 207.009 80.6628C204.664 83.1655 201.61 85.1481 197.85 86.6129C195.6 87.4986 193.63 87.8234 191.935 87.5872C190.24 87.351 188.972 87.0013 188.136 86.5289C187.302 86.0634 186.727 85.382 186.416 84.4963C185.371 87.4714 184.389 90.4851 183.478 93.5351C182.56 96.5873 181.349 99.4988 179.831 102.263C178.793 102.937 177.512 103.448 175.994 103.791C174.483 104.129 172.992 104.052 171.531 103.555C170.073 103.058 169.014 102.172 168.357 100.891C167.707 99.6101 167.382 98.2157 167.382 96.7054C167.382 94.666 167.88 92.1883 168.868 89.2655C170.334 84.9346 171.52 81.5962 172.431 79.2457C173.349 76.902 173.935 75.3713 174.196 74.6718C174.458 73.9655 174.719 73.2183 174.98 72.4348C176.128 69.4098 176.975 66.9435 177.523 65.0381C178.071 63.1327 178.582 61.4771 179.052 60.069V59.9918C179.568 57.6912 180.39 55.2521 181.52 52.6722C182.642 50.0855 183.412 48.5049 183.826 47.9326C184.712 47.0469 185.63 46.4996 186.566 46.2884C187.509 46.084 188.579 45.95 189.779 45.9H190.015L191.501 46.2884V46.2929ZM197.454 59.3673C196.829 60.4619 195.784 61.4816 194.325 62.4241L193.619 64.0683C193.096 65.4241 192.599 66.8072 192.133 68.2152C191.66 69.6233 191.138 71.0064 190.565 72.3622C191.088 72.8845 191.476 73.3819 191.737 73.852C194.664 71.2902 197.327 67.9268 199.731 63.7481C200.667 62.0289 201.281 60.3075 201.567 58.5815C201.853 56.8623 201.924 55.7654 201.764 55.2953C201.612 54.8297 201.362 54.5935 201.019 54.5935C200.676 54.5935 200.344 54.6821 200.006 54.8683C199.663 55.0523 199.401 55.2317 199.222 55.4157C199.038 55.5996 199.049 55.6064 199.261 55.4543C198.688 56.1288 198.265 56.7215 198.004 57.2121C197.743 57.7094 197.563 58.4293 197.456 59.365L197.454 59.3673Z" fill="#2A273A"/>
<path d="M254.555 44.7259L254.867 44.8076C254.969 44.8076 255.026 44.8326 255.026 44.8849C256.382 44.3625 257.505 44.7577 258.391 46.0567C258.963 46.9492 259.411 48.305 259.722 50.1264C259.825 52.6359 259.563 56.1015 258.938 60.5414C257.734 69.5165 257.084 74.8626 256.982 76.5886C257.084 78.4099 255.962 79.6658 253.61 80.3403C251.577 80.9717 249.539 80.9444 247.505 80.2631C245.362 79.5296 244.478 78.4099 244.84 76.8997C244.426 77.6832 244.006 78.2442 243.59 78.5825C243.17 78.9209 242.347 79.391 241.123 79.9906C239.893 80.5901 238.153 81.0852 235.908 81.4804C233.665 81.8687 231.42 81.9709 229.178 81.7915C226.928 81.6076 224.881 81.058 223.027 80.1473C221.173 79.2298 219.937 77.8104 219.305 75.88C218.108 72.1214 218.267 67.35 219.778 61.552C220.823 57.7435 222.704 54.3778 225.42 51.455C228.548 48.1165 232.1 45.3527 236.069 43.1611C239.046 41.5419 241.913 40.5744 244.688 40.2633C245.624 40.1611 246.446 40.1861 247.155 40.3405C247.857 40.4995 248.614 40.6516 249.425 40.8129C250.234 40.9719 251.006 41.2012 251.738 41.5192C253.613 42.3027 254.555 43.3723 254.555 44.7236V44.7259ZM240.068 65.4764C240.432 64.7428 240.732 63.8321 240.968 62.7375C241.204 61.6429 241.529 60.4369 241.95 59.1311C237.717 60.8571 234.479 62.9714 232.236 65.4764C229.782 68.2402 229.934 70.1456 232.709 71.1903C235.106 71.8148 236.858 71.4265 237.955 70.0116C238.428 69.3871 238.841 68.6036 239.205 67.6679C239.575 66.7254 240.014 65.7625 240.536 64.7701C240.384 65.0312 240.225 65.2674 240.071 65.4764H240.068Z" fill="#2A273A"/>
<path d="M276.559 46.2929C278.49 44.9939 280.715 44.5987 283.218 45.121C285.722 45.6934 287.131 46.7903 287.445 48.4072C287.865 47.4125 288.179 46.4269 288.388 45.4322C290.739 34.8378 293.32 26.7483 296.138 21.1661C297.031 19.4401 297.942 18.241 298.885 17.5665C301.339 15.9995 303.92 15.7883 306.635 16.9352C307.73 17.4076 308.592 18.0434 309.223 18.8519C309.848 19.6604 310.096 20.4053 309.962 21.0821C309.834 21.7634 309.884 22.3107 310.121 22.7331C310.357 23.1465 310.63 23.5666 310.943 23.9822C311.777 24.9769 312.116 25.8354 311.963 26.5689C310.918 30.6909 309.523 34.9581 307.769 39.3662C306.022 43.7743 304.231 48.1711 302.409 52.5542C300.58 56.9373 298.924 61.2568 297.431 65.5127C295.945 69.7687 294.963 73.7997 294.493 77.6037C294.493 78.5985 294.079 79.4955 293.243 80.304C292.409 81.1125 291.362 81.7575 290.108 82.2208C287.131 83.2654 284.366 83.0542 281.81 81.5962V81.1238C281.287 80.9717 280.905 80.8627 280.676 80.8127C280.44 80.7628 280.267 80.6606 280.167 80.5016C280.008 80.2404 279.881 79.4319 279.772 78.0738C278.726 79.6931 277.713 80.6855 276.718 81.0489C275.723 81.4123 274.709 81.5962 273.664 81.5962C268.597 81.5962 264.996 80.6855 262.855 78.8574C260.974 77.2903 260.09 74.7354 260.19 71.188C260.299 67.2183 261.758 62.7852 264.575 57.8798C267.813 52.293 271.81 48.4322 276.559 46.2906V46.2929ZM276.482 71.9738C278.152 72.5461 279.306 72.1532 279.931 70.7952C280.294 70.1207 280.644 69.235 280.989 68.138C281.328 67.0434 281.76 65.7625 282.278 64.2977L282.596 62.7375C281.339 62.004 280.206 61.904 279.185 62.4264C278.165 62.9487 277.343 63.7504 276.718 64.8473C276.093 65.9419 275.723 67.1729 275.623 68.5287C275.514 69.8845 275.807 71.0313 276.484 71.9761L276.482 71.9738Z" fill="#2A273A"/>
</g>
<defs>
<clipPath id="clip0_3299_4180">
<rect width="312" height="104" fill="white"/>
</clipPath>
</defs>
</svg>
