<svg width="93" height="58" viewBox="0 0 93 58" fill="none" xmlns="http://www.w3.org/2000/svg">
<path d="M13.978 3.05481C14.8382 1.28686 16.8415 0.389195 18.7335 0.923892L23.5363 2.2812C48.0839 9.21855 69.5278 24.3277 84.3209 45.1093L93 57.3019H4.26744C2.4432 57.3019 0.964355 55.823 0.964355 53.9988C0.964355 38.076 4.58438 22.3616 11.5507 8.04368L13.978 3.05481Z" fill="#25252C"/>
<path d="M26.4345 35.534C26.7801 34.8213 27.5873 34.4594 28.3493 34.6755L28.9152 34.836C39.6446 37.8787 49.1201 44.2721 55.9578 53.0825L59.2324 57.3019H22.5614C21.8271 57.3019 21.2319 56.7067 21.2319 55.9725C21.2319 49.5832 22.6801 43.2771 25.4677 37.528L26.4345 35.534Z" fill="#F5796F"/>
</svg>
