<svg width="93" height="58" viewBox="0 0 93 58" fill="none" xmlns="http://www.w3.org/2000/svg">
<path d="M79.022 3.05481C78.1618 1.28686 76.1585 0.389195 74.2665 0.923892L69.4637 2.2812C44.9161 9.21855 23.4722 24.3277 8.67911 45.1093L0 57.3019H88.7326C90.5568 57.3019 92.0356 55.823 92.0356 53.9988C92.0356 38.076 88.4156 22.3616 81.4493 8.04368L79.022 3.05481Z" fill="#25252C"/>
<path d="M66.5655 35.534C66.2199 34.8213 65.4127 34.4594 64.6507 34.6755L64.0848 34.836C53.3554 37.8787 43.8799 44.2721 37.0422 53.0825L33.7676 57.3019H70.4386C71.1729 57.3019 71.7681 56.7067 71.7681 55.9725C71.7681 49.5832 70.3199 43.2771 67.5323 37.528L66.5655 35.534Z" fill="#F5796F"/>
</svg>
