<svg width="1920" height="1427" viewBox="0 0 1920 1427" fill="none" xmlns="http://www.w3.org/2000/svg">
<path d="M1919.98 1.07V1227.61C1857.95 1229.32 1806.43 1269.74 1792.61 1323.64C1783.07 1319.92 1772.58 1317.86 1761.57 1317.86C1722.37 1317.86 1689.78 1343.96 1682.93 1378.41C1654.74 1362.88 1621.81 1353.95 1586.62 1353.95C1523.36 1353.95 1467.39 1382.78 1433.18 1427C1407.45 1414.81 1378.28 1407.94 1347.38 1407.94C1326.23 1407.94 1305.89 1411.16 1286.9 1417.1C1237.99 1368.98 1160.36 1337.88 1072.94 1337.88C997.46 1337.88 929.28 1361.06 880.581 1398.39C847.631 1383.04 809.202 1374.23 768.152 1374.23C707.903 1374.23 653.273 1393.21 613.364 1424.01C595.324 1415.06 574.714 1409.98 552.824 1409.98C529.544 1409.98 507.715 1415.72 488.895 1425.74C456.765 1371.95 394.846 1335.52 323.737 1335.52C295.667 1335.52 269.027 1341.21 245.087 1351.39C240.467 1314.59 206.678 1286.01 165.668 1286.01C149.428 1286.01 134.329 1290.51 121.709 1298.21C99.839 1256.4 53.5594 1227.58 0 1227.58V1C53.5594 1 99.839 32.1498 121.709 77.3195C134.329 68.9895 149.428 64.1396 165.668 64.1396C206.678 64.1396 240.467 95.0093 245.087 134.759C269.027 123.759 295.667 117.619 323.737 117.619C394.846 117.619 456.765 156.969 488.895 215.088C507.715 204.259 529.544 198.069 552.824 198.069C574.714 198.069 595.324 203.549 613.364 213.229C653.273 179.949 707.903 159.439 768.152 159.439C809.202 159.439 847.631 168.969 880.581 185.559C929.28 145.249 997.46 120.189 1072.94 120.189C1160.36 120.189 1237.99 153.789 1286.9 205.769C1305.89 199.359 1326.23 195.869 1347.38 195.869C1378.28 195.869 1407.45 203.289 1433.18 216.458C1467.39 168.679 1523.36 137.539 1586.62 137.539C1621.81 137.539 1654.74 147.189 1682.93 163.969C1689.78 126.759 1722.37 98.5693 1761.57 98.5693C1772.58 98.5693 1783.07 100.789 1792.61 104.809C1806.43 46.5697 1857.95 2.91999 1919.98 1.07Z" fill="url(#paint0_radial_3445_2687)"/>
<path d="M93.5991 1246.68H93.6091C372.406 1256.54 651.203 1261.64 930.04 1261.98C1228.83 1262.34 1527.59 1257.24 1826.38 1246.68H1826.39" stroke="#FABF52" stroke-miterlimit="10"/>
<path d="M31.8296 1183.09C322.317 1200.22 621.113 1211.18 926.52 1212.05C1255.84 1213.01 1577.18 1201.57 1888.15 1183.11H1888.16" stroke="#F9B547" stroke-miterlimit="10"/>
<path d="M5.45996 1119.64C294.817 1143.7 601.914 1160.71 923 1162.12C1272.11 1163.69 1604.38 1145.65 1914.54 1119.64" stroke="#F7AB3B" stroke-miterlimit="10"/>
<path d="M0 1057.2C281.427 1087.57 589.834 1110.24 919.47 1112.18C1281.21 1114.36 1617.4 1090.09 1919.98 1057.2" stroke="#F6A130" stroke-miterlimit="10"/>
<path d="M0 995.213C271.907 1031.65 579.784 1059.79 915.95 1062.25C1288.28 1065.02 1626.54 1034.76 1919.98 995.213" stroke="#F59625" stroke-miterlimit="10"/>
<path d="M0 933.213C262.387 975.723 569.724 1009.33 912.42 1012.32C1295.34 1015.68 1635.67 979.423 1919.98 933.213" stroke="#F38C19" stroke-miterlimit="10"/>
<path d="M0 871.224C252.867 919.813 559.674 958.883 908.9 962.393C1302.4 966.343 1644.81 924.083 1919.98 871.224" stroke="#F2820E" stroke-miterlimit="10"/>
<path d="M0 805.074C59.3894 814.924 120.719 828.054 182.348 842.094C200.248 843.514 218.558 845.294 237.158 847.594C284.087 853.344 331.567 862.384 377.646 871.964C408.806 873.714 440.675 875.823 473.115 878.443C553.194 884.843 635.183 894.533 717.113 904.633C743.132 904.293 769.652 904.343 796.532 904.943C821.441 905.503 846.441 906.563 871.411 907.953C915.45 904.353 960.25 901.813 1005.01 901.283C1032.51 900.953 1059.57 901.603 1085.95 902.943C1133.64 896.893 1182.31 892.143 1230.88 889.913C1288.58 887.253 1344.36 887.933 1396.53 890.233C1410.68 888.433 1424.87 886.943 1439.05 885.833C1459.96 884.193 1480.56 883.353 1500.69 883.133C1542.03 873.533 1584.49 865.564 1626.77 861.044C1650.57 858.484 1673.92 856.974 1696.58 856.244C1721.22 848.524 1747.73 841.754 1774.44 838.284C1781.81 837.324 1789.1 836.614 1796.27 836.114C1836.11 823.174 1878.15 811.714 1919.98 805.074" stroke="#F38714" stroke-width="1.02" stroke-miterlimit="10"/>
<path d="M0 738.935C58.2894 747.025 117.379 762.194 174.148 780.104C191.258 780.094 208.958 780.864 227.008 782.744C272.987 787.474 318.657 799.264 360.146 812.764C390.096 812.644 420.896 813.504 452.305 815.654C530.634 820.924 609.534 834.464 685.263 851.014C710.143 849.214 735.742 848.384 761.782 848.884C785.972 849.354 810.092 851.004 833.931 853.534C878.681 845.904 925.6 840.934 973.06 840.524C1002.01 840.264 1030.35 842.154 1057.56 845.614C1105.66 834.954 1156.59 827.514 1208.2 825.694C1269.15 823.514 1327.54 828.834 1380.02 838.074C1394.71 835.684 1409.58 833.964 1424.53 833.054C1446.53 831.704 1468.1 832.074 1488.93 833.744C1529.97 819.094 1574.18 808.134 1619.01 804.404C1644.06 802.294 1668.52 802.414 1691.92 804.184C1715.23 792.564 1742.73 783.004 1771.08 780.124C1778.85 779.324 1786.5 779.064 1793.96 779.224C1831.85 760.334 1875.45 744.704 1919.97 738.955" stroke="#F38D1A" stroke-width="1.03" stroke-miterlimit="10"/>
<path d="M0 672.795C57.1994 679.115 114.029 696.335 165.938 718.115C182.258 716.665 199.348 716.425 216.848 717.895C261.887 721.605 305.747 736.154 342.646 753.564C371.386 751.574 401.116 751.184 431.485 752.864C508.075 757.004 583.874 774.404 653.403 797.394C677.143 794.124 701.823 792.414 727.022 792.824C750.492 793.204 773.742 795.454 796.442 799.104C841.911 787.444 890.931 780.054 941.1 779.754C971.51 779.564 1001.11 782.694 1029.15 788.264C1077.66 772.994 1130.85 762.874 1185.51 761.454C1249.71 759.764 1310.7 769.714 1363.51 785.904C1378.75 782.934 1394.29 780.984 1410 780.274C1433.09 779.214 1455.62 780.784 1477.16 784.364C1517.89 764.664 1563.85 750.704 1611.23 747.764C1637.54 746.104 1663.09 747.854 1687.25 752.124C1709.23 736.604 1737.72 724.245 1767.72 721.975C1775.89 721.345 1783.91 721.525 1791.66 722.335C1827.6 697.485 1872.75 677.695 1919.98 672.825" stroke="#F49220" stroke-width="1.05" stroke-miterlimit="10"/>
<path d="M0 606.656C56.0994 611.205 110.689 630.475 157.728 656.115C173.268 653.235 189.738 651.985 206.698 653.035C250.787 655.715 292.837 673.025 325.157 694.355C352.686 690.495 381.346 688.855 410.686 690.075C485.525 693.085 558.234 714.335 621.563 743.765C644.173 739.035 667.933 736.445 692.283 736.755C715.033 737.045 737.402 739.895 758.972 744.675C805.162 728.985 856.291 719.175 909.16 718.985C941.03 718.865 971.9 723.235 1000.77 730.925C1049.7 711.045 1105.14 698.235 1162.84 697.225C1230.28 696.015 1293.88 710.605 1347.01 733.735C1362.79 730.175 1379.01 728.005 1395.48 727.485C1419.66 726.725 1443.16 729.485 1465.4 734.965C1505.83 710.205 1553.54 693.265 1603.47 691.115C1631.03 689.905 1657.69 693.285 1682.6 700.045C1703.25 680.625 1732.73 665.475 1764.38 663.795C1772.95 663.335 1781.33 663.945 1789.37 665.415C1823.36 634.615 1870.07 610.655 1920 606.666" stroke="#F59726" stroke-width="1.06" stroke-miterlimit="10"/>
<path d="M0 540.516C55.0094 543.296 107.349 564.616 149.518 594.125C164.268 589.805 180.138 587.546 196.538 588.186C239.688 589.846 279.917 609.905 307.647 635.155C333.967 629.425 361.556 626.535 389.856 627.285C462.945 629.165 532.564 654.275 589.694 690.145C611.164 683.945 634.003 680.485 657.513 680.695C679.533 680.895 701.043 684.335 721.462 690.255C768.372 670.535 821.601 658.305 877.181 658.225C910.501 658.175 942.64 663.785 972.34 673.595C1021.68 649.105 1079.39 633.615 1140.13 633.005C1210.82 632.285 1277.03 651.515 1330.47 681.575C1346.79 677.425 1363.69 675.035 1380.93 674.715C1406.2 674.245 1430.68 678.205 1453.61 685.585C1493.73 655.775 1543.2 635.835 1595.68 634.485C1624.49 633.735 1652.26 638.735 1677.91 647.995C1697.23 624.675 1727.71 606.725 1760.99 605.655C1769.96 605.365 1778.71 606.415 1787.03 608.535C1819.06 571.776 1867.33 543.666 1919.97 540.556" stroke="#F59D2C" stroke-width="1.08" stroke-miterlimit="10"/>
<path d="M0 474.376C53.9094 475.386 104.009 498.756 141.319 532.126C155.278 526.376 170.538 523.106 186.388 523.326C228.588 523.966 267.017 546.776 290.157 575.946C315.267 568.346 341.786 564.206 369.056 564.486C440.395 565.236 506.925 594.196 557.844 636.515C578.184 628.855 600.094 624.515 622.773 624.625C644.073 624.725 664.703 628.775 683.993 635.815C731.622 612.065 786.962 597.406 845.241 597.446C880.021 597.466 913.42 604.316 943.96 616.235C993.72 587.136 1053.68 568.966 1117.46 568.756C1191.4 568.516 1260.21 592.386 1313.98 629.395C1330.85 624.665 1348.42 622.045 1366.42 621.925C1392.77 621.745 1418.22 626.905 1441.86 636.185C1481.68 601.326 1532.89 578.396 1587.92 577.836C1617.98 577.536 1646.86 584.166 1673.26 595.926C1691.25 568.706 1722.72 547.956 1757.65 547.496C1767.03 547.376 1776.13 548.866 1784.74 551.646C1814.82 508.936 1864.65 476.656 1919.98 474.426" stroke="#F6A232" stroke-width="1.09" stroke-miterlimit="10"/>
<path d="M0 395.477C53.8494 396.317 103.309 422.937 138.049 461.097C151.788 454.397 167.018 450.557 182.938 450.747C224.948 451.277 262.597 477.366 282.647 510.786C307.557 501.926 334.097 497.076 361.506 497.306C432.805 497.936 498.565 531.086 546.364 579.676C566.444 570.816 588.344 565.776 611.124 565.866C632.523 565.956 653.153 570.586 672.233 578.666C718.572 551.246 773.792 534.336 832.401 534.356C868.221 534.366 902.471 542.266 933.4 556.006C982.98 522.516 1044.31 501.626 1110.05 501.456C1186.24 501.256 1256.52 528.846 1309.48 571.606C1326.7 566.196 1344.74 563.206 1363.26 563.106C1390.37 562.956 1416.44 568.956 1440.43 579.716C1479.31 539.716 1531.31 513.466 1587.72 512.996C1618.64 512.746 1648.19 520.486 1674.89 534.126C1691.02 502.916 1722.68 479.166 1758.32 478.776C1767.97 478.676 1777.3 480.426 1786.06 483.666C1813.43 434.727 1863.54 397.817 1919.99 395.537" stroke="#F7A737" stroke-width="1.1" stroke-miterlimit="10"/>
<path d="M0 316.578C53.7894 317.258 102.619 347.117 134.779 390.057C148.288 382.407 163.498 378.007 179.478 378.157C221.288 378.577 258.157 407.947 275.127 445.617C299.847 435.507 326.407 429.937 353.946 430.117C425.206 430.617 490.205 467.967 534.864 522.816C554.694 512.746 576.584 507.016 599.454 507.086C620.953 507.156 641.573 512.366 660.443 521.496C705.503 490.406 760.602 471.237 819.541 471.257C856.411 471.267 891.491 480.206 922.83 495.756C972.23 457.877 1034.94 434.277 1102.62 434.137C1181.05 433.977 1252.8 465.297 1304.95 513.796C1322.53 507.696 1341.02 504.356 1360.07 504.276C1387.94 504.156 1414.63 511.006 1438.96 523.226C1476.91 478.086 1529.71 448.517 1587.49 448.147C1619.26 447.947 1649.49 456.797 1676.49 472.317C1690.76 437.117 1722.61 410.357 1758.96 410.047C1768.88 409.967 1778.45 411.987 1787.36 415.677C1812.02 360.507 1862.41 318.978 1919.98 316.638" stroke="#F7AC3D" stroke-width="1.12" stroke-miterlimit="10"/>
<path d="M0 237.688C53.7294 238.198 101.919 271.298 131.509 319.038C144.798 310.438 159.978 305.468 176.028 305.578C217.638 305.898 253.737 338.537 267.627 380.457C292.147 369.097 318.727 362.797 346.396 362.937C417.626 363.317 481.845 404.857 523.374 465.977C542.954 454.707 564.824 448.267 587.804 448.327C609.404 448.377 630.023 454.177 648.683 464.347C692.453 429.597 747.432 408.157 806.702 408.177C844.611 408.177 880.531 418.167 912.27 435.527C961.5 393.257 1025.57 366.937 1095.2 366.837C1175.88 366.717 1249.1 401.757 1300.44 456.007C1318.37 449.227 1337.33 445.527 1356.9 445.467C1385.53 445.377 1412.84 453.067 1437.52 466.757C1474.53 416.477 1528.12 383.597 1587.27 383.317C1619.9 383.167 1650.8 393.117 1678.1 410.527C1690.52 371.327 1722.55 341.567 1759.61 341.337C1769.8 341.277 1779.6 343.557 1788.67 347.707C1810.62 286.308 1861.29 240.148 1919.98 237.758" stroke="#F8B142" stroke-width="1.13" stroke-miterlimit="10"/>
<path d="M0 158.789C53.6794 159.129 101.229 195.478 128.249 248.008C141.319 238.468 156.468 232.918 172.578 232.998C213.988 233.208 249.317 269.118 260.117 315.298C284.447 302.678 311.047 295.668 338.846 295.758C410.036 296.008 473.485 341.747 511.885 409.137C531.214 396.657 553.064 389.527 576.144 389.567C597.834 389.597 618.454 395.987 636.913 407.197C679.393 368.777 734.262 345.087 793.852 345.097C832.811 345.097 869.561 356.127 901.711 375.307C950.76 328.637 1016.2 299.618 1087.78 299.548C1170.71 299.468 1245.4 338.227 1295.93 398.227C1314.21 390.767 1333.63 386.697 1353.73 386.657C1383.11 386.597 1411.04 395.127 1436.08 410.297C1472.16 354.877 1526.54 318.677 1587.06 318.487C1620.54 318.387 1652.12 329.447 1679.71 348.737C1690.27 305.548 1722.49 272.788 1760.27 272.628C1770.74 272.588 1780.76 275.128 1789.99 279.738C1809.23 212.108 1860.19 161.319 1919.98 158.889" stroke="#F9B547" stroke-width="1.15" stroke-miterlimit="10"/>
<path d="M0 79.8892C53.6194 80.0592 100.529 119.659 124.979 176.969C137.819 166.479 152.948 160.369 169.128 160.399C210.338 160.509 244.897 199.688 252.607 250.118C276.737 236.248 303.357 228.508 331.297 228.558C402.446 228.688 465.135 278.618 500.395 352.277C519.465 338.597 541.314 330.767 564.494 330.787C586.284 330.807 606.904 337.767 625.143 350.027C666.343 307.938 721.082 281.988 781.012 281.988C821.011 281.988 858.611 294.048 891.151 315.048C940.03 263.988 1006.84 232.248 1080.37 232.218C1165.54 232.178 1241.7 274.668 1291.42 340.407C1310.06 332.267 1329.94 327.837 1350.56 327.817C1380.7 327.787 1409.25 337.157 1434.63 353.797C1469.77 293.238 1524.95 253.718 1586.84 253.628C1621.18 253.578 1653.43 265.738 1681.32 286.928C1690.03 239.748 1722.43 203.978 1760.92 203.898C1771.66 203.878 1781.92 206.678 1791.3 211.748C1807.83 137.889 1859.07 82.4792 1919.98 79.9892" stroke="#F9BA4D" stroke-width="1.16" stroke-miterlimit="10"/>
<path d="M0 1C53.5594 1 99.839 43.8397 121.709 105.949C134.329 94.5093 149.428 87.8294 165.668 87.8294C206.678 87.8294 240.467 130.289 245.087 184.969C269.027 169.849 295.667 161.389 323.737 161.389C394.846 161.389 456.765 215.518 488.895 295.438C507.715 280.548 529.544 272.028 552.824 272.028C574.714 272.028 595.324 279.578 613.364 292.868C653.273 247.108 707.903 218.898 768.152 218.898C809.202 218.898 847.631 231.998 880.581 254.808C929.28 199.359 997.46 164.909 1072.94 164.909C1160.36 164.909 1237.99 211.119 1286.9 282.618C1305.89 273.788 1326.23 269.008 1347.38 269.008C1378.28 269.008 1407.45 279.228 1433.18 297.328C1467.39 231.618 1523.36 188.799 1586.62 188.799C1621.81 188.799 1654.74 202.069 1682.93 225.138C1689.78 173.969 1722.37 135.189 1761.57 135.189C1772.58 135.189 1783.07 138.259 1792.61 143.779C1806.43 63.6896 1857.95 3.64998 1919.98 1.11" stroke="#FABF52" stroke-width="1.17" stroke-miterlimit="10"/>
<defs>
<radialGradient id="paint0_radial_3445_2687" cx="0" cy="0" r="1" gradientUnits="userSpaceOnUse" gradientTransform="translate(959.99 714) rotate(90) scale(713 959.99)">
<stop stop-color="#FFD689"/>
<stop offset="1" stop-color="#FABF52"/>
</radialGradient>
</defs>
</svg>
