<svg width="1920" height="482" viewBox="0 0 1920 482" fill="none" xmlns="http://www.w3.org/2000/svg">
<path d="M1919.98 1.07V1227.61C1857.95 1229.32 1806.43 1269.74 1792.61 1323.64C1783.07 1319.92 1772.58 1317.86 1761.57 1317.86C1722.37 1317.86 1689.78 1343.96 1682.93 1378.41C1654.74 1362.88 1621.81 1353.95 1586.62 1353.95C1523.36 1353.95 1467.39 1382.78 1433.18 1427C1407.45 1414.81 1378.28 1407.94 1347.38 1407.94C1326.23 1407.94 1305.89 1411.16 1286.9 1417.1C1237.99 1368.98 1160.36 1337.88 1072.94 1337.88C997.46 1337.88 929.28 1361.06 880.581 1398.39C847.631 1383.04 809.202 1374.23 768.152 1374.23C707.903 1374.23 653.273 1393.21 613.364 1424.01C595.324 1415.06 574.714 1409.98 552.824 1409.98C529.544 1409.98 507.715 1415.72 488.895 1425.74C456.765 1371.95 394.846 1335.52 323.737 1335.52C295.667 1335.52 269.027 1341.21 245.087 1351.39C240.467 1314.59 206.678 1286.01 165.668 1286.01C149.428 1286.01 134.329 1290.51 121.709 1298.21C99.839 1256.4 53.5594 1227.58 0 1227.58V1C53.5594 1 99.839 32.1498 121.709 77.3195C134.329 68.9895 149.428 64.1396 165.668 64.1396C206.678 64.1396 240.467 95.0093 245.087 134.759C269.027 123.759 295.667 117.619 323.737 117.619C394.846 117.619 456.765 156.969 488.895 215.088C507.715 204.259 529.544 198.069 552.824 198.069C574.714 198.069 595.324 203.549 613.364 213.229C653.273 179.949 707.903 159.439 768.152 159.439C809.202 159.439 847.631 168.969 880.581 185.559C929.28 145.249 997.46 120.189 1072.94 120.189C1160.36 120.189 1237.99 153.789 1286.9 205.769C1305.89 199.359 1326.23 195.869 1347.38 195.869C1378.28 195.869 1407.45 203.289 1433.18 216.458C1467.39 168.679 1523.36 137.539 1586.62 137.539C1621.81 137.539 1654.74 147.189 1682.93 163.969C1689.78 126.759 1722.37 98.5693 1761.57 98.5693C1772.58 98.5693 1783.07 100.789 1792.61 104.809C1806.43 46.5697 1857.95 2.91999 1919.98 1.07Z" fill="#FABF52"/>
<path d="M0 474.376C53.9094 475.386 104.009 498.756 141.319 532.126C155.278 526.376 170.538 523.106 186.388 523.326C228.588 523.966 267.017 546.776 290.157 575.946C315.267 568.346 341.786 564.206 369.056 564.486C440.395 565.236 506.925 594.196 557.844 636.515C578.184 628.855 600.094 624.515 622.773 624.625C644.073 624.725 664.703 628.775 683.993 635.815C731.622 612.065 786.962 597.406 845.241 597.446C880.021 597.466 913.42 604.316 943.96 616.235C993.72 587.136 1053.68 568.966 1117.46 568.756C1191.4 568.516 1260.21 592.386 1313.98 629.395C1330.85 624.665 1348.42 622.045 1366.42 621.925C1392.77 621.745 1418.22 626.905 1441.86 636.185C1481.68 601.326 1532.89 578.396 1587.92 577.836C1617.98 577.536 1646.86 584.166 1673.26 595.926C1691.25 568.706 1722.72 547.956 1757.65 547.496C1767.03 547.376 1776.13 548.866 1784.74 551.646C1814.82 508.936 1864.65 476.656 1919.98 474.426" stroke="#F6A232" stroke-width="1.09" stroke-miterlimit="10"/>
<path d="M0 395.477C53.8494 396.317 103.309 422.937 138.049 461.097C151.788 454.397 167.018 450.557 182.938 450.747C224.948 451.277 262.597 477.366 282.647 510.786C307.557 501.926 334.097 497.076 361.506 497.306C432.805 497.936 498.565 531.086 546.364 579.676C566.444 570.816 588.344 565.776 611.124 565.866C632.523 565.956 653.153 570.586 672.233 578.666C718.572 551.246 773.792 534.336 832.401 534.356C868.221 534.366 902.471 542.266 933.4 556.006C982.98 522.516 1044.31 501.626 1110.05 501.456C1186.24 501.256 1256.52 528.846 1309.48 571.606C1326.7 566.196 1344.74 563.206 1363.26 563.106C1390.37 562.956 1416.44 568.956 1440.43 579.716C1479.31 539.716 1531.31 513.466 1587.72 512.996C1618.64 512.746 1648.19 520.486 1674.89 534.126C1691.02 502.916 1722.68 479.166 1758.32 478.776C1767.97 478.676 1777.3 480.426 1786.06 483.666C1813.43 434.727 1863.54 397.817 1919.99 395.537" stroke="#F7A737" stroke-width="1.1" stroke-miterlimit="10"/>
<path d="M0 316.578C53.7894 317.258 102.619 347.117 134.779 390.057C148.288 382.407 163.498 378.007 179.478 378.157C221.288 378.577 258.157 407.947 275.127 445.617C299.847 435.507 326.407 429.937 353.946 430.117C425.206 430.617 490.205 467.967 534.864 522.816C554.694 512.746 576.584 507.016 599.454 507.086C620.953 507.156 641.573 512.366 660.443 521.496C705.503 490.406 760.602 471.237 819.541 471.257C856.411 471.267 891.491 480.206 922.83 495.756C972.23 457.877 1034.94 434.277 1102.62 434.137C1181.05 433.977 1252.8 465.297 1304.95 513.796C1322.53 507.696 1341.02 504.356 1360.07 504.276C1387.94 504.156 1414.63 511.006 1438.96 523.226C1476.91 478.086 1529.71 448.517 1587.49 448.147C1619.26 447.947 1649.49 456.797 1676.49 472.317C1690.76 437.117 1722.61 410.357 1758.96 410.047C1768.88 409.967 1778.45 411.987 1787.36 415.677C1812.02 360.507 1862.41 318.978 1919.98 316.638" stroke="#F7AC3D" stroke-width="1.12" stroke-miterlimit="10"/>
<path d="M0 237.688C53.7294 238.198 101.919 271.298 131.509 319.038C144.798 310.438 159.978 305.468 176.028 305.578C217.638 305.898 253.737 338.538 267.627 380.457C292.147 369.097 318.727 362.797 346.396 362.937C417.626 363.317 481.845 404.857 523.374 465.977C542.954 454.707 564.824 448.267 587.804 448.327C609.404 448.377 630.023 454.177 648.683 464.347C692.453 429.597 747.432 408.157 806.702 408.177C844.611 408.177 880.531 418.167 912.27 435.527C961.5 393.257 1025.57 366.937 1095.2 366.837C1175.88 366.717 1249.1 401.757 1300.44 456.007C1318.37 449.227 1337.33 445.527 1356.9 445.467C1385.53 445.377 1412.84 453.067 1437.52 466.757C1474.53 416.477 1528.12 383.597 1587.27 383.317C1619.9 383.167 1650.8 393.117 1678.1 410.527C1690.52 371.327 1722.55 341.568 1759.61 341.338C1769.8 341.278 1779.6 343.557 1788.67 347.707C1810.62 286.308 1861.29 240.148 1919.98 237.758" stroke="#F8B142" stroke-width="1.13" stroke-miterlimit="10"/>
<path d="M0 158.789C53.6794 159.129 101.229 195.478 128.249 248.008C141.319 238.468 156.468 232.918 172.578 232.998C213.988 233.208 249.317 269.118 260.117 315.297C284.447 302.678 311.047 295.668 338.846 295.758C410.036 296.008 473.485 341.747 511.885 409.137C531.214 396.657 553.064 389.527 576.144 389.567C597.834 389.597 618.454 395.987 636.913 407.197C679.393 368.777 734.262 345.087 793.852 345.097C832.811 345.097 869.561 356.127 901.711 375.307C950.76 328.637 1016.2 299.618 1087.78 299.548C1170.71 299.468 1245.4 338.227 1295.93 398.227C1314.21 390.767 1333.63 386.697 1353.73 386.657C1383.11 386.597 1411.04 395.127 1436.08 410.297C1472.16 354.877 1526.54 318.677 1587.06 318.487C1620.54 318.387 1652.12 329.447 1679.71 348.737C1690.27 305.548 1722.49 272.788 1760.27 272.628C1770.74 272.588 1780.76 275.128 1789.99 279.738C1809.23 212.108 1860.19 161.319 1919.98 158.889" stroke="#F9B547" stroke-width="1.15" stroke-miterlimit="10"/>
<path d="M0 79.8892C53.6194 80.0592 100.529 119.659 124.979 176.968C137.819 166.479 152.948 160.369 169.128 160.399C210.338 160.509 244.897 199.688 252.607 250.118C276.737 236.248 303.357 228.508 331.297 228.558C402.446 228.688 465.135 278.618 500.395 352.277C519.465 338.597 541.314 330.767 564.494 330.787C586.284 330.807 606.904 337.767 625.143 350.027C666.343 307.938 721.082 281.988 781.012 281.988C821.011 281.988 858.611 294.048 891.151 315.048C940.03 263.988 1006.84 232.248 1080.37 232.218C1165.54 232.178 1241.7 274.668 1291.42 340.407C1310.06 332.267 1329.94 327.837 1350.56 327.817C1380.7 327.787 1409.25 337.157 1434.63 353.797C1469.77 293.238 1524.95 253.718 1586.84 253.628C1621.18 253.578 1653.43 265.738 1681.32 286.928C1690.03 239.748 1722.43 203.978 1760.92 203.898C1771.66 203.878 1781.92 206.678 1791.3 211.748C1807.83 137.889 1859.07 82.4791 1919.98 79.9892" stroke="#F9BA4D" stroke-width="1.16" stroke-miterlimit="10"/>
<path d="M0 1C53.5594 1 99.839 43.8397 121.709 105.949C134.329 94.5093 149.428 87.8294 165.668 87.8294C206.678 87.8294 240.467 130.289 245.087 184.969C269.027 169.849 295.667 161.389 323.737 161.389C394.846 161.389 456.765 215.518 488.895 295.438C507.715 280.548 529.544 272.028 552.824 272.028C574.714 272.028 595.324 279.578 613.364 292.868C653.273 247.108 707.903 218.898 768.152 218.898C809.202 218.898 847.631 231.998 880.581 254.808C929.28 199.359 997.46 164.909 1072.94 164.909C1160.36 164.909 1237.99 211.119 1286.9 282.618C1305.89 273.788 1326.23 269.008 1347.38 269.008C1378.28 269.008 1407.45 279.228 1433.18 297.328C1467.39 231.618 1523.36 188.799 1586.62 188.799C1621.81 188.799 1654.74 202.069 1682.93 225.138C1689.78 173.969 1722.37 135.189 1761.57 135.189C1772.58 135.189 1783.07 138.259 1792.61 143.779C1806.43 63.6896 1857.95 3.64998 1919.98 1.11" stroke="#FABF52" stroke-width="1.17" stroke-miterlimit="10"/>
</svg>
