<svg width="24" height="24" viewBox="0 0 24 24" fill="none" xmlns="http://www.w3.org/2000/svg">
<path d="M22.7559 13.8561C22.5135 11.5868 21.8305 9.44965 20.762 7.43369C20.4205 6.78374 20.0239 6.16684 19.6383 5.54993C19.5832 5.45079 19.4731 5.37366 19.3739 5.3296C18.03 4.72371 16.6309 4.29409 15.1878 4.0297C15.0666 4.00766 15.0005 4.0297 14.9454 4.13987C14.8132 4.42629 14.648 4.71271 14.5268 4.99913C14.4607 5.15335 14.3836 5.16438 14.2404 5.15337C13.326 5.09829 12.4117 5.01014 11.4974 4.99913C10.8915 4.98811 10.2966 5.07624 9.6907 5.14234C9.51445 5.16437 9.42632 5.14234 9.34921 4.96608C9.22803 4.67966 9.07381 4.40427 8.94161 4.11785C8.88653 4.00768 8.82043 3.98564 8.69925 4.00768C7.24512 4.28308 5.83504 4.7017 4.49107 5.3186C4.40294 5.36267 4.30379 5.42876 4.24871 5.51689C2.82762 7.66504 1.80313 9.97842 1.31842 12.5232C0.987932 14.2637 0.921827 16.0153 1.08707 17.7779C1.09809 17.844 1.15316 17.9321 1.21926 17.9762C2.82762 19.1439 4.56818 20.0362 6.47398 20.6311C6.54008 20.6531 6.66125 20.6421 6.6943 20.598C7.07987 20.0142 7.45443 19.4193 7.83999 18.8024C7.19004 18.4829 6.58415 18.1965 5.97826 17.8991C6.25366 17.5245 6.37483 17.4915 6.72735 17.6457C10.1974 19.1109 13.6676 19.1219 17.1377 17.6567C17.5232 17.4915 17.5783 17.5025 17.8978 17.8881C17.5893 18.0533 17.3029 18.2185 16.9944 18.3618C16.697 18.505 16.3886 18.6261 16.036 18.7804C16.3445 19.2871 16.6309 19.7828 16.9394 20.2565C17.2258 20.6972 17.2368 20.6972 17.7325 20.5319C19.4951 19.9371 21.1365 19.0888 22.6457 17.9872C22.7229 17.9321 22.7779 17.811 22.8 17.7118C22.844 17.4144 22.8661 17.1169 22.8881 16.8195V15.0679C22.844 14.6824 22.8 14.2637 22.7559 13.8561ZM9.62461 14.8145C8.89754 15.5526 7.81795 15.5746 7.05784 14.8696C6.08841 13.9773 6.11045 12.3029 7.09088 11.4436C8.11539 10.5403 9.66868 11.0029 10.1314 12.3579C10.2195 12.6223 10.2525 12.8977 10.3076 13.1621C10.2635 13.8011 10.0653 14.3629 9.62461 14.8145ZM16.8953 14.8256C16.1682 15.5637 15.0666 15.5857 14.3065 14.8696C13.3811 13.9883 13.3811 12.3689 14.3175 11.4987C15.342 10.5403 16.9283 10.9919 17.4131 12.369C17.4571 12.5122 17.5012 12.6554 17.5232 12.7986C17.5452 12.9197 17.5452 13.052 17.5563 13.1401C17.5342 13.8121 17.347 14.3629 16.8953 14.8256Z" fill="#3F3F4D"/>
</svg>
