<svg width="1920" height="441" viewBox="0 0 1920 441" fill="none" xmlns="http://www.w3.org/2000/svg">
<path d="M1792.63 103.81C1783.09 99.79 1772.6 97.57 1761.59 97.57C1722.39 97.57 1689.8 125.76 1682.95 162.97C1654.76 146.19 1621.83 136.54 1586.64 136.54C1523.38 136.54 1467.41 167.68 1433.19 215.46C1407.46 202.29 1378.29 194.87 1347.39 194.87C1326.24 194.87 1305.9 198.35 1286.91 204.77C1238 152.79 1160.37 119.19 1072.95 119.19C997.47 119.19 929.29 144.25 880.59 184.56C847.64 167.97 809.21 158.44 768.16 158.44C707.91 158.44 653.28 178.95 613.37 212.23C595.33 202.55 574.72 197.07 552.83 197.07C529.55 197.07 507.72 203.26 488.9 214.09C456.77 155.97 394.85 116.62 323.74 116.62C295.67 116.62 269.03 122.76 245.09 133.76C240.47 94.01 206.68 63.14 165.67 63.14C149.43 63.14 134.33 67.99 121.71 76.32C99.84 31.15 53.56 0 0 0V1226.56V1426H1920V0.0700001C1857.97 1.92 1806.45 45.58 1792.63 103.81Z" fill="#EEEDF1"/>
</svg>
