<svg width="20" height="17" viewBox="0 0 20 17" fill="none" xmlns="http://www.w3.org/2000/svg">
<path d="M19.6967 1.14671C19.6417 1.85174 19.2451 4.31939 18.8375 6.9853L17.5816 14.8949C17.5816 14.8949 17.4825 16.0516 16.6232 16.2499C15.764 16.4482 14.3539 15.5449 14.1005 15.3466C13.9022 15.1924 10.322 12.934 9.01105 11.8214C8.65853 11.5239 8.25093 10.9181 9.06613 10.213C10.8838 8.54959 13.043 6.48956 14.3539 5.17863C14.9598 4.57274 15.5657 3.16268 13.043 4.88121L5.93754 9.66222C5.93754 9.66222 5.13335 10.169 3.62414 9.71729C2.11492 9.26563 0.35233 8.65975 0.35233 8.65975C0.35233 8.65975 -0.859451 7.89962 1.21159 7.09544L12.9438 2.25935C14.1005 1.75261 18.0333 0.144229 18.0333 0.144229C18.0333 0.144229 19.851 -0.560802 19.6967 1.14671Z" fill="#3F3F4D"/>
</svg>
