<svg width="1920" height="483" viewBox="0 0 1920 483" fill="none" xmlns="http://www.w3.org/2000/svg">
<mask id="mask0_4222_3682" style="mask-type:alpha" maskUnits="userSpaceOnUse" x="0" y="0" width="1920" height="483">
<rect width="1920" height="483" fill="#D9D9D9"/>
</mask>
<g mask="url(#mask0_4222_3682)">
<path d="M1792.63 103.81C1783.09 99.79 1772.6 97.57 1761.59 97.57C1722.39 97.57 1689.8 125.76 1682.95 162.97C1654.76 146.19 1621.83 136.54 1586.64 136.54C1523.38 136.54 1467.41 167.68 1433.19 215.46C1407.46 202.29 1378.29 194.87 1347.39 194.87C1326.24 194.87 1305.9 198.35 1286.91 204.77C1238 152.79 1160.37 119.19 1072.95 119.19C997.47 119.19 929.29 144.25 880.59 184.56C847.64 167.97 809.21 158.44 768.16 158.44C707.91 158.44 653.28 178.95 613.37 212.23C595.33 202.55 574.72 197.07 552.83 197.07C529.55 197.07 507.72 203.26 488.9 214.09C456.77 155.97 394.85 116.62 323.74 116.62C295.67 116.62 269.03 122.76 245.09 133.76C240.47 94.01 206.68 63.14 165.67 63.14C149.43 63.14 134.33 67.99 121.71 76.32C99.84 31.15 53.56 0 0 0V1226.56V1426H1920V0.0700001C1857.97 1.92 1806.45 45.58 1792.63 103.81Z" fill="#FABF52"/>
<path d="M0 473.38C53.91 474.39 104.01 497.76 141.32 531.13C155.28 525.38 170.54 522.11 186.39 522.33C228.59 522.97 267.02 545.78 290.16 574.95C315.27 567.35 341.79 563.21 369.06 563.49C440.4 564.24 506.93 593.2 557.85 635.52C578.19 627.86 600.1 623.52 622.78 623.63C644.08 623.73 664.71 627.78 684 634.82C731.63 611.07 786.97 596.41 845.25 596.45C880.03 596.47 913.43 603.32 943.97 615.24C993.73 586.14 1053.69 567.97 1117.47 567.76C1191.41 567.52 1260.22 591.39 1313.99 628.4C1330.86 623.67 1348.43 621.05 1366.43 620.93C1392.78 620.75 1418.23 625.91 1441.88 635.19C1481.7 600.33 1532.91 577.4 1587.94 576.84C1618 576.54 1646.88 583.17 1673.28 594.93C1691.27 567.71 1722.74 546.96 1757.67 546.5C1767.05 546.38 1776.15 547.87 1784.76 550.65C1814.84 507.94 1864.67 475.66 1920 473.43" stroke="#F6A232" stroke-width="1.09" stroke-miterlimit="10"/>
<path d="M0 394.48C53.85 395.32 103.31 421.94 138.05 460.1C151.79 453.4 167.02 449.56 182.94 449.75C224.95 450.28 262.6 476.37 282.65 509.79C307.56 500.93 334.1 496.08 361.51 496.31C432.81 496.94 498.57 530.09 546.37 578.68C566.45 569.82 588.35 564.78 611.13 564.87C632.53 564.96 653.16 569.59 672.24 577.67C718.58 550.25 773.8 533.34 832.41 533.36C868.23 533.37 902.48 541.27 933.41 555.01C982.99 521.52 1044.32 500.63 1110.06 500.46C1186.25 500.26 1256.53 527.85 1309.49 570.61C1326.71 565.2 1344.75 562.21 1363.27 562.11C1390.38 561.96 1416.45 567.96 1440.44 578.72C1479.33 538.72 1531.33 512.47 1587.74 512C1618.66 511.75 1648.21 519.49 1674.91 533.13C1691.04 501.92 1722.7 478.17 1758.34 477.78C1767.99 477.68 1777.32 479.43 1786.08 482.67C1813.45 433.73 1863.56 396.82 1920.01 394.54" stroke="#F7A737" stroke-width="1.1" stroke-miterlimit="10"/>
<path d="M0 315.58C53.79 316.26 102.62 346.12 134.78 389.06C148.29 381.41 163.5 377.01 179.48 377.16C221.29 377.58 258.16 406.95 275.13 444.62C299.85 434.51 326.41 428.94 353.95 429.12C425.21 429.62 490.21 466.97 534.87 521.82C554.7 511.75 576.59 506.02 599.46 506.09C620.96 506.16 641.58 511.37 660.45 520.5C705.51 489.41 760.61 470.24 819.55 470.26C856.42 470.27 891.5 479.21 922.84 494.76C972.24 456.88 1034.95 433.28 1102.63 433.14C1181.06 432.98 1252.81 464.3 1304.96 512.8C1322.54 506.7 1341.03 503.36 1360.08 503.28C1387.95 503.16 1414.64 510.01 1438.98 522.23C1476.93 477.09 1529.73 447.52 1587.51 447.15C1619.28 446.95 1649.51 455.8 1676.51 471.32C1690.78 436.12 1722.63 409.36 1758.98 409.05C1768.9 408.97 1778.47 410.99 1787.38 414.68C1812.04 359.51 1862.43 317.98 1920 315.64" stroke="#F7AC3D" stroke-width="1.12" stroke-miterlimit="10"/>
<path d="M0 236.69C53.73 237.2 101.92 270.3 131.51 318.04C144.8 309.44 159.98 304.47 176.03 304.58C217.64 304.9 253.74 337.54 267.63 379.46C292.15 368.1 318.73 361.8 346.4 361.94C417.63 362.32 481.85 403.86 523.38 464.98C542.96 453.71 564.83 447.27 587.81 447.33C609.41 447.38 630.03 453.18 648.69 463.35C692.46 428.6 747.44 407.16 806.71 407.18C844.62 407.18 880.54 417.17 912.28 434.53C961.51 392.26 1025.58 365.94 1095.21 365.84C1175.89 365.72 1249.11 400.76 1300.45 455.01C1318.38 448.23 1337.34 444.53 1356.91 444.47C1385.54 444.38 1412.85 452.07 1437.53 465.76C1474.55 415.48 1528.14 382.6 1587.29 382.32C1619.92 382.17 1650.82 392.12 1678.12 409.53C1690.54 370.33 1722.57 340.57 1759.63 340.34C1769.82 340.28 1779.62 342.56 1788.69 346.71C1810.64 285.31 1861.31 239.15 1920 236.76" stroke="#F8B142" stroke-width="1.13" stroke-miterlimit="10"/>
<path d="M0 157.79C53.68 158.13 101.23 194.48 128.25 247.01C141.32 237.47 156.47 231.92 172.58 232C213.99 232.21 249.32 268.12 260.12 314.3C284.45 301.68 311.05 294.67 338.85 294.76C410.04 295.01 473.49 340.75 511.89 408.14C531.22 395.66 553.07 388.53 576.15 388.57C597.84 388.6 618.46 394.99 636.92 406.2C679.4 367.78 734.27 344.09 793.86 344.1C832.82 344.1 869.57 355.13 901.72 374.31C950.77 327.64 1016.21 298.62 1087.79 298.55C1170.72 298.47 1245.41 337.23 1295.94 397.23C1314.22 389.77 1333.64 385.7 1353.74 385.66C1383.12 385.6 1411.05 394.13 1436.09 409.3C1472.18 353.88 1526.56 317.68 1587.08 317.49C1620.56 317.39 1652.14 328.45 1679.73 347.74C1690.29 304.55 1722.51 271.79 1760.29 271.63C1770.76 271.59 1780.78 274.13 1790.01 278.74C1809.25 211.11 1860.21 160.32 1920 157.89" stroke="#F9B547" stroke-width="1.15" stroke-miterlimit="10"/>
<path d="M0 78.89C53.62 79.06 100.53 118.66 124.98 175.97C137.82 165.48 152.95 159.37 169.13 159.4C210.34 159.51 244.9 198.69 252.61 249.12C276.74 235.25 303.36 227.51 331.3 227.56C402.45 227.69 465.14 277.62 500.4 351.28C519.47 337.6 541.32 329.77 564.5 329.79C586.29 329.81 606.91 336.77 625.15 349.03C666.35 306.94 721.09 280.99 781.02 280.99C821.02 280.99 858.62 293.05 891.16 314.05C940.04 262.99 1006.85 231.25 1080.38 231.22C1165.55 231.18 1241.71 273.67 1291.43 339.41C1310.07 331.27 1329.95 326.84 1350.57 326.82C1380.71 326.79 1409.26 336.16 1434.64 352.8C1469.79 292.24 1524.97 252.72 1586.86 252.63C1621.2 252.58 1653.45 264.74 1681.34 285.93C1690.05 238.75 1722.45 202.98 1760.94 202.9C1771.68 202.88 1781.94 205.68 1791.32 210.75C1807.85 136.89 1859.09 81.48 1920 78.99" stroke="#F9BA4D" stroke-width="1.16" stroke-miterlimit="10"/>
<path d="M0 0C53.56 0 99.84 42.84 121.71 104.95C134.33 93.51 149.43 86.83 165.67 86.83C206.68 86.83 240.47 129.29 245.09 183.97C269.03 168.85 295.67 160.39 323.74 160.39C394.85 160.39 456.77 214.52 488.9 294.44C507.72 279.55 529.55 271.03 552.83 271.03C574.72 271.03 595.33 278.58 613.37 291.87C653.28 246.11 707.91 217.9 768.16 217.9C809.21 217.9 847.64 231 880.59 253.81C929.29 198.36 997.47 163.91 1072.95 163.91C1160.37 163.91 1238 210.12 1286.91 281.62C1305.9 272.79 1326.24 268.01 1347.39 268.01C1378.29 268.01 1407.46 278.23 1433.19 296.33C1467.41 230.62 1523.38 187.8 1586.64 187.8C1621.83 187.8 1654.76 201.07 1682.95 224.14C1689.8 172.97 1722.39 134.19 1761.59 134.19C1772.6 134.19 1783.09 137.26 1792.63 142.78C1806.45 62.69 1857.97 2.65 1920 0.11" stroke="#FABF52" stroke-width="1.17" stroke-miterlimit="10"/>
</g>
</svg>
