<svg width="24" height="24" viewBox="0 0 24 24" fill="none" xmlns="http://www.w3.org/2000/svg">
<path d="M13.5645 18.2944C13.5755 18.3495 13.5756 18.4266 13.5535 18.4817C13.4544 18.8783 13.3772 19.2748 13.2671 19.6494C13.1239 20.068 13.212 20.4756 13.234 20.8832C13.2451 20.9713 13.245 21.0595 13.2561 21.1476C13.0247 21.1806 12.7934 21.2027 12.5841 21.2357H11.5926C11.5376 21.2247 11.4935 21.2027 11.4494 21.2027C10.1826 21.1146 8.9818 20.784 7.86917 20.1782C5.28036 18.7571 3.69402 16.5869 3.14322 13.6786C3.07712 13.3261 3.04406 12.9626 3 12.61V11.6406C3.05508 11.222 3.09916 10.7814 3.18729 10.3627C3.37456 9.3823 3.72709 8.46798 4.22281 7.5977C4.24485 7.54262 4.29992 7.50957 4.355 7.49856C4.52024 7.44347 4.68548 7.42145 4.86174 7.39941C4.67446 7.55364 4.47616 7.70786 4.26685 7.8731C4.54226 8.07139 4.79563 8.2256 5.15916 8.23662C5.80912 8.23662 6.43706 8.10445 7.076 7.98327C7.26327 7.95022 7.36242 7.99426 7.45055 8.1595C7.68189 8.57811 7.95727 8.97473 8.18861 9.39334C8.24369 9.47045 8.26573 9.56959 8.26573 9.65772C8.27675 10.0433 8.25473 10.4288 8.27676 10.8144C8.27676 10.9135 8.30979 11.0127 8.36487 11.0898C8.72841 11.5966 9.10297 12.1033 9.47752 12.61C9.55463 12.7312 9.64277 12.7753 9.797 12.7312V12.2025H9.83004C9.96224 12.4668 10.0944 12.7533 10.2266 13.0287C10.2817 13.1388 10.3368 13.1939 10.4579 13.216C10.8545 13.2931 11.2401 13.3812 11.6367 13.4803C11.7468 13.5134 11.868 13.5795 11.9451 13.6566C12.2756 13.9761 12.562 14.3506 13.1128 14.3506C12.9806 14.637 12.8925 14.8904 12.7493 15.1107C12.507 15.4853 12.507 15.8158 12.7713 16.1903C13.234 16.8182 13.3662 17.5783 13.5645 18.2944Z" fill="#3F3F4D"/>
<path d="M21.221 12.5992C21.0778 15.0999 20.0753 17.1819 18.2466 18.8674C17.123 19.9029 15.8121 20.597 14.3359 20.9605C14.3249 20.9715 14.3139 20.9605 14.2698 20.9605C14.3249 20.7732 14.3579 20.608 14.413 20.4317C14.424 20.3766 14.4901 20.3326 14.5452 20.2995C14.9859 20.0021 15.4375 19.7047 15.8782 19.4072C15.9443 19.3632 15.9993 19.286 16.0434 19.2089C16.1536 18.9335 16.2417 18.6361 16.3629 18.3607C16.3959 18.2836 16.4731 18.1954 16.5502 18.1624C16.8146 18.0192 17.101 17.898 17.3764 17.7658C17.4315 17.7327 17.4975 17.6887 17.5306 17.6336C17.8611 17.0167 18.1806 16.3998 18.511 15.7609C18.4119 15.7058 18.3238 15.6397 18.2246 15.5846C18.1145 15.5185 18.0043 15.4414 17.8941 15.3863C17.2221 15.0558 16.6603 14.6042 16.2086 13.9983C16.1646 13.9432 16.0765 13.8881 16.0104 13.8771C15.7019 13.8 15.3824 13.7339 15.052 13.6788C14.6664 13.6017 14.2918 13.4915 13.9063 13.4585C13.719 13.4365 13.5207 13.5136 13.3334 13.5797C13.1572 13.6347 13.036 13.6127 12.9258 13.4585C12.7606 13.1941 12.5072 13.0509 12.1988 13.0178C12.2098 12.7865 12.2208 12.5772 12.2318 12.3679C11.8793 12.3018 11.5819 12.3458 11.3836 12.7424C11.3175 12.456 11.2624 12.2136 11.1963 11.9603C11.4166 11.8611 11.6369 11.751 11.8573 11.6518C11.8903 11.6408 11.9564 11.6518 12.0005 11.6738C12.1657 11.751 12.32 11.8391 12.4852 11.8942C12.6284 11.9382 12.7826 11.9493 12.9368 11.9603C12.9699 11.9603 13.036 11.9052 13.036 11.8832C13.0691 11.3764 13.4436 11.079 13.708 10.7154C14.0495 10.2417 14.4681 9.88923 15.0079 9.69094C15.074 9.65789 15.1401 9.63587 15.1952 9.5918C15.5697 9.32741 15.9883 9.28336 16.429 9.39352C16.4951 9.40453 16.5612 9.40451 16.6273 9.40451C16.7264 9.16216 16.7595 8.94185 16.5061 8.76559C16.3849 8.67746 16.3078 8.54527 16.1976 8.45714C15.8011 8.10462 15.5036 7.69701 15.3053 7.2123C15.2723 7.11316 15.2062 7.05807 15.096 7.06909C14.8096 7.10214 14.5452 7.06911 14.3139 6.88183C14.2478 6.82675 14.1486 6.83775 14.0715 6.82673C13.8732 6.79368 13.686 6.77166 13.4766 6.73862C13.4216 7.04707 13.3555 7.3555 13.3004 7.68599C12.9919 7.63091 12.6945 7.56481 12.386 7.50973C12.353 7.49871 12.32 7.45466 12.3089 7.42161C12.2869 7.25637 12.2759 7.09113 12.2538 6.90385C12.4631 6.84877 12.6615 6.8047 12.8597 6.76064C12.9589 6.7386 13.0029 6.70556 13.025 6.5954C13.0911 6.28695 13.1682 5.9895 13.2453 5.65902C13.4656 5.75816 13.697 5.83528 13.9063 5.93442C13.9503 5.95645 13.9724 6.05561 13.9724 6.12171C13.9724 6.40813 13.9724 6.40813 14.2368 6.52931C14.3029 6.55134 14.3579 6.57338 14.424 6.60643C14.7435 6.77167 15.052 6.79369 15.3604 6.49626C15.2172 6.33102 15.074 6.14374 14.9087 5.9785C14.7104 5.78021 14.5232 5.5709 14.3029 5.39464C14.1046 5.2294 14.1156 5.05312 14.1596 4.82178C14.5672 4.92092 14.9638 4.93194 15.3163 5.2404C15.7349 5.59292 15.9112 6.04459 16.0544 6.52931C16.0985 6.69455 16.1756 6.81571 16.2968 6.92587C16.5722 7.15721 16.8366 7.41061 17.112 7.64195C17.2442 7.75211 17.3984 7.8292 17.5526 7.92835C17.6848 7.71904 17.795 7.5538 17.8941 7.37754C17.9492 7.27839 18.0263 7.22332 18.1475 7.2123C18.5441 7.17925 18.9517 7.14621 19.3593 7.11316C19.3813 7.11316 19.4033 7.11315 19.4254 7.10213C19.5245 7.0801 19.6457 7.01402 19.7118 7.04707C19.7999 7.10215 19.855 7.22332 19.9101 7.31144C20.8685 8.96387 21.3202 10.7155 21.221 12.5992Z" fill="#3F3F4D"/>
<path d="M5.10352 6.30879C5.18063 6.27575 5.23572 6.27576 5.29081 6.25373C5.92974 6.05544 6.5797 5.86817 7.25168 5.81309C7.7364 5.78004 8.21007 5.66985 8.60665 5.37241C8.7058 5.2953 8.80495 5.2953 8.92613 5.33936C9.16849 5.41648 9.41086 5.50462 9.66423 5.52665C10.0388 5.54869 10.4243 5.50464 10.8099 5.47159C10.887 5.46057 10.9751 5.40547 11.0082 5.35039C11.1293 5.19617 11.2285 5.01989 11.3276 4.85465C11.3827 4.77754 11.4268 4.74449 11.5259 4.75551C11.7573 4.78856 11.9996 4.84365 12.231 4.83263C12.6716 4.8106 13.1233 4.75553 13.5639 4.71147C13.6521 4.70045 13.7512 4.64537 13.8063 4.56825C14.0156 4.33691 14.247 4.12761 14.5113 3.95135C14.7096 3.80814 14.8859 3.78609 15.1172 3.83015C15.3816 3.87422 15.657 3.97336 15.9324 3.8632C12.6826 2.23281 7.95671 2.8387 5.10352 6.30879ZM9.80741 4.79958C9.77436 4.8106 9.73031 4.79957 9.68625 4.78856C9.50999 4.68941 9.34475 4.59027 9.16849 4.4801C9.35576 4.31486 9.54304 4.17165 9.7193 4.02844C9.75235 4.0064 9.80743 4.0064 9.82947 4.02844C10.0718 4.18266 10.3032 4.13861 10.5455 4.03946C10.6667 3.98438 10.7328 4.01745 10.7768 4.12761C10.8319 4.24879 10.909 4.36996 10.9862 4.50216C10.5786 4.59029 10.193 4.70044 9.80741 4.79958ZM13.575 4.09456C13.3106 4.35895 12.9801 4.43606 12.6166 4.46911C12.3522 4.49114 12.1759 4.392 11.9666 4.22675C12.4513 3.96237 12.903 3.69795 13.3546 3.44458C13.3987 3.42255 13.4758 3.42255 13.5199 3.44458C13.6851 3.53271 13.8503 3.63187 14.0376 3.73101C13.8724 3.86321 13.7072 3.96237 13.575 4.09456Z" fill="#3F3F4D"/>
</svg>
