<svg width="1920" height="557" viewBox="0 0 1920 557" fill="none" xmlns="http://www.w3.org/2000/svg">
<path d="M1792.63 114.415C1783.09 109.992 1772.6 107.549 1761.59 107.549C1722.39 107.549 1689.8 138.57 1682.95 179.517C1654.76 161.052 1621.83 150.433 1586.64 150.433C1523.38 150.433 1467.41 184.7 1433.19 237.279C1407.46 222.786 1378.29 214.621 1347.39 214.621C1326.24 214.621 1305.9 218.451 1286.91 225.515C1238 168.315 1160.37 131.34 1072.95 131.34C997.47 131.34 929.29 158.917 880.59 203.276C847.64 185.019 809.21 174.532 768.16 174.532C707.91 174.532 653.28 197.102 613.37 233.725C595.33 223.072 574.72 217.042 552.83 217.042C529.55 217.042 507.72 223.854 488.9 235.771C456.77 171.814 394.85 128.512 323.74 128.512C295.67 128.512 269.03 135.269 245.09 147.373C240.47 103.631 206.68 69.6606 165.67 69.6606C149.43 69.6606 134.33 74.9977 121.71 84.1644C99.84 34.4576 53.56 0.179016 0 0.179016V1349.93V1569.4H1920V0.256047C1857.97 2.29185 1806.45 50.3369 1792.63 114.415Z" fill="#EEEDF1"/>
</svg>
