<svg width="1920" height="421" viewBox="0 0 1920 421" fill="none" xmlns="http://www.w3.org/2000/svg">
<path d="M1792.63 104.81C1783.09 100.79 1772.6 98.57 1761.59 98.57C1722.39 98.57 1689.8 126.76 1682.95 163.97C1654.76 147.19 1621.83 137.54 1586.64 137.54C1523.38 137.54 1467.41 168.68 1433.19 216.46C1407.46 203.29 1378.29 195.87 1347.39 195.87C1326.24 195.87 1305.9 199.35 1286.91 205.77C1238 153.79 1160.37 120.19 1072.95 120.19C997.47 120.19 929.29 145.25 880.59 185.56C847.64 168.97 809.21 159.44 768.16 159.44C707.91 159.44 653.28 179.95 613.37 213.23C595.33 203.55 574.72 198.07 552.83 198.07C529.55 198.07 507.72 204.26 488.9 215.09C456.77 156.97 394.85 117.62 323.74 117.62C295.67 117.62 269.03 123.76 245.09 134.76C240.47 95.01 206.68 64.14 165.67 64.14C149.43 64.14 134.33 68.99 121.71 77.32C99.84 32.15 53.56 1 0 1V1227.56V1427H1920V1.07C1857.97 2.92 1806.45 46.58 1792.63 104.81Z" fill="#FABF52"/>
<path d="M0 395.48C53.85 396.32 103.31 422.94 138.05 461.1C151.79 454.4 167.02 450.56 182.94 450.75C224.95 451.28 262.6 477.37 282.65 510.79C307.56 501.93 334.1 497.08 361.51 497.31C432.81 497.94 498.57 531.09 546.37 579.68C566.45 570.82 588.35 565.78 611.13 565.87C632.53 565.96 653.16 570.59 672.24 578.67C718.58 551.25 773.8 534.34 832.41 534.36C868.23 534.37 902.48 542.27 933.41 556.01C982.99 522.52 1044.32 501.63 1110.06 501.46C1186.25 501.26 1256.53 528.85 1309.49 571.61C1326.71 566.2 1344.75 563.21 1363.27 563.11C1390.38 562.96 1416.45 568.96 1440.44 579.72C1479.33 539.72 1531.33 513.47 1587.74 513C1618.66 512.75 1648.21 520.49 1674.91 534.13C1691.04 502.92 1722.7 479.17 1758.34 478.78C1767.99 478.68 1777.32 480.43 1786.08 483.67C1813.45 434.73 1863.56 397.82 1920.01 395.54" stroke="#F7A737" stroke-width="1.1" stroke-miterlimit="10"/>
<path d="M0 316.58C53.79 317.26 102.62 347.12 134.78 390.06C148.29 382.41 163.5 378.01 179.48 378.16C221.29 378.58 258.16 407.95 275.13 445.62C299.85 435.51 326.41 429.94 353.95 430.12C425.21 430.62 490.21 467.97 534.87 522.82C554.7 512.75 576.59 507.02 599.46 507.09C620.96 507.16 641.58 512.37 660.45 521.5C705.51 490.41 760.61 471.24 819.55 471.26C856.42 471.27 891.5 480.21 922.84 495.76C972.24 457.88 1034.95 434.28 1102.63 434.14C1181.06 433.98 1252.81 465.3 1304.96 513.8C1322.54 507.7 1341.03 504.36 1360.08 504.28C1387.95 504.16 1414.64 511.01 1438.98 523.23C1476.93 478.09 1529.73 448.52 1587.51 448.15C1619.28 447.95 1649.51 456.8 1676.51 472.32C1690.78 437.12 1722.63 410.36 1758.98 410.05C1768.9 409.97 1778.47 411.99 1787.38 415.68C1812.04 360.51 1862.43 318.98 1920 316.64" stroke="#F7AC3D" stroke-width="1.12" stroke-miterlimit="10"/>
<path d="M0 237.69C53.73 238.2 101.92 271.3 131.51 319.04C144.8 310.44 159.98 305.47 176.03 305.58C217.64 305.9 253.74 338.54 267.63 380.46C292.15 369.1 318.73 362.8 346.4 362.94C417.63 363.32 481.85 404.86 523.38 465.98C542.96 454.71 564.83 448.27 587.81 448.33C609.41 448.38 630.03 454.18 648.69 464.35C692.46 429.6 747.44 408.16 806.71 408.18C844.62 408.18 880.54 418.17 912.28 435.53C961.51 393.26 1025.58 366.94 1095.21 366.84C1175.89 366.72 1249.11 401.76 1300.45 456.01C1318.38 449.23 1337.34 445.53 1356.91 445.47C1385.54 445.38 1412.85 453.07 1437.53 466.76C1474.55 416.48 1528.14 383.6 1587.29 383.32C1619.92 383.17 1650.82 393.12 1678.12 410.53C1690.54 371.33 1722.57 341.57 1759.63 341.34C1769.82 341.28 1779.62 343.56 1788.69 347.71C1810.64 286.31 1861.31 240.15 1920 237.76" stroke="#F8B142" stroke-width="1.13" stroke-miterlimit="10"/>
<path d="M0 158.79C53.68 159.13 101.23 195.48 128.25 248.01C141.32 238.47 156.47 232.92 172.58 233C213.99 233.21 249.32 269.12 260.12 315.3C284.45 302.68 311.05 295.67 338.85 295.76C410.04 296.01 473.49 341.75 511.89 409.14C531.22 396.66 553.07 389.53 576.15 389.57C597.84 389.6 618.46 395.99 636.92 407.2C679.4 368.78 734.27 345.09 793.86 345.1C832.82 345.1 869.57 356.13 901.72 375.31C950.77 328.64 1016.21 299.62 1087.79 299.55C1170.72 299.47 1245.41 338.23 1295.94 398.23C1314.22 390.77 1333.64 386.7 1353.74 386.66C1383.12 386.6 1411.05 395.13 1436.09 410.3C1472.18 354.88 1526.56 318.68 1587.08 318.49C1620.56 318.39 1652.14 329.45 1679.73 348.74C1690.29 305.55 1722.51 272.79 1760.29 272.63C1770.76 272.59 1780.78 275.13 1790.01 279.74C1809.25 212.11 1860.21 161.32 1920 158.89" stroke="#F9B547" stroke-width="1.15" stroke-miterlimit="10"/>
<path d="M0 79.89C53.62 80.06 100.53 119.66 124.98 176.97C137.82 166.48 152.95 160.37 169.13 160.4C210.34 160.51 244.9 199.69 252.61 250.12C276.74 236.25 303.36 228.51 331.3 228.56C402.45 228.69 465.14 278.62 500.4 352.28C519.47 338.6 541.32 330.77 564.5 330.79C586.29 330.81 606.91 337.77 625.15 350.03C666.35 307.94 721.09 281.99 781.02 281.99C821.02 281.99 858.62 294.05 891.16 315.05C940.04 263.99 1006.85 232.25 1080.38 232.22C1165.55 232.18 1241.71 274.67 1291.43 340.41C1310.07 332.27 1329.95 327.84 1350.57 327.82C1380.71 327.79 1409.26 337.16 1434.64 353.8C1469.79 293.24 1524.97 253.72 1586.86 253.63C1621.2 253.58 1653.45 265.74 1681.34 286.93C1690.05 239.75 1722.45 203.98 1760.94 203.9C1771.68 203.88 1781.94 206.68 1791.32 211.75C1807.85 137.89 1859.09 82.48 1920 79.99" stroke="#F9BA4D" stroke-width="1.16" stroke-miterlimit="10"/>
<path d="M0 1C53.56 1 99.84 43.84 121.71 105.95C134.33 94.51 149.43 87.83 165.67 87.83C206.68 87.83 240.47 130.29 245.09 184.97C269.03 169.85 295.67 161.39 323.74 161.39C394.85 161.39 456.77 215.52 488.9 295.44C507.72 280.55 529.55 272.03 552.83 272.03C574.72 272.03 595.33 279.58 613.37 292.87C653.28 247.11 707.91 218.9 768.16 218.9C809.21 218.9 847.64 232 880.59 254.81C929.29 199.36 997.47 164.91 1072.95 164.91C1160.37 164.91 1238 211.12 1286.91 282.62C1305.9 273.79 1326.24 269.01 1347.39 269.01C1378.29 269.01 1407.46 279.23 1433.19 297.33C1467.41 231.62 1523.38 188.8 1586.64 188.8C1621.83 188.8 1654.76 202.07 1682.95 225.14C1689.8 173.97 1722.39 135.19 1761.59 135.19C1772.6 135.19 1783.09 138.26 1792.63 143.78C1806.45 63.69 1857.97 3.65 1920 1.11" stroke="#FABF52" stroke-width="1.17" stroke-miterlimit="10"/>
</svg>
